<?xml version="1.0" encoding="UTF-8" standalone="no"?>
<!DOCTYPE svg PUBLIC "-//W3C//DTD SVG 1.1//EN" "http://www.w3.org/Graphics/SVG/1.1/DTD/svg11.dtd">
<svg width="100%" height="100%" viewBox="0 0 804 853" version="1.1" xmlns="http://www.w3.org/2000/svg" xmlns:xlink="http://www.w3.org/1999/xlink" xml:space="preserve" xmlns:serif="http://www.serif.com/" style="fill-rule:evenodd;clip-rule:evenodd;stroke-linejoin:round;stroke-miterlimit:2;">
    <g transform="matrix(1,0,0,1,-1185.09,-4684.96)">
        <g transform="matrix(0.999091,0,0,0.995837,1084.41,4616.38)">
            <g id="hand-top" transform="matrix(1.04729,0,0,1.05071,-32.1091,-40.7023)">
                <path d="M145.076,333.237C145.075,333.237 145.073,333.237 145.072,333.237C119.464,334.186 121.851,189.299 146.249,174.479C146.303,174.446 146.365,174.429 146.428,174.43C149.486,174.449 225.062,174.931 272.007,176.089C278.545,176.25 288.444,174.137 295.7,172.399C314.516,167.893 340.507,157.478 366.528,147.157C413.211,128.64 441.253,123.207 486.521,106.528C494.954,103.421 510.863,103.763 519.126,106.189C558.417,117.726 616.012,141.124 666.785,153.793C676.168,156.134 689.378,164.348 697.583,174.517C745.459,233.847 785.251,288.189 805.551,307.548C812.098,313.791 803.577,339.001 794.872,341.461C783.676,344.625 754.783,342.628 738.379,326.533C726.141,314.526 719.056,311.892 704.675,290.892C702.315,287.445 693.917,279.468 688.559,275.005C669.386,259.033 658.422,249.785 644.118,235.556C640.847,232.303 637.726,228.547 625.143,226.653C613.637,224.922 528.89,204.952 528.64,204.675C500.668,218.155 472.27,223.724 443.51,222.596C478.237,235.852 497.826,235.609 530.757,236.538C542.903,236.881 569.668,242.325 585.93,248.578C596.497,252.641 608.777,261.75 613.457,270.78C618.137,279.809 615.86,294.125 613.1,300.371C601.66,326.252 569.435,311.678 552.832,308.741C527.745,304.302 505.693,302.575 489.326,306.405C476.216,309.473 448.518,318.643 430.963,331.852C417.184,342.221 369.263,362.106 337.021,363.067C284.387,364.636 259.353,337.125 227.115,334.151C192.88,330.993 145.217,333.23 145.076,333.237Z"/>
                <path d="M703.652,306.282C723.145,330.397 744.335,352.188 780.545,353.394C780.545,353.394 780.624,359.836 779.906,361.446C777.891,365.96 769.111,373.125 764.199,373.562C762.871,373.68 760.186,374.004 759.438,374.073C758.704,374.141 757.248,373.847 754.652,373.197C741.849,369.993 732.746,361.78 724.433,350.734C717.47,341.482 702.453,315.731 703.652,306.282Z"/>
            </g>
        </g>
        <g transform="matrix(0.999091,0,0,0.995837,1084.41,4616.38)">
            <g id="star" transform="matrix(1.04729,0,0,1.05071,-32.1091,-40.7023)">
                <path d="M302.963,516.794C301.468,516.574 300.006,514.635 300.006,513.358C300.006,512.082 301.264,509.404 302.961,509.134C326.81,505.338 415.696,495.69 443.099,490.58C451.988,488.923 460.346,484.164 467.377,478.478C479.962,468.3 487.382,454.546 491.43,439.96C498.227,415.465 504.733,350.027 508.161,331.507C508.445,329.974 510.683,328.788 512,328.836C513.317,328.883 515.76,330.145 516.065,331.792C519.461,350.177 526.91,415.952 532.38,439.145C535.122,450.77 541.485,462.632 548.886,470.949C556.255,479.23 565.951,486.7 576.785,489.046C605.632,495.293 697.352,504.361 721.969,508.431C723.821,508.737 724.763,511.957 724.488,513.467C724.213,514.976 722.228,517.196 720.319,517.487C697.609,520.949 615.442,529.38 588.229,534.24C577.217,536.207 565.321,539.118 557.046,546.646C547.748,555.104 536.534,570.363 532.443,584.987C525.671,609.198 519.44,672.648 516.414,691.91C516.148,693.602 513.357,694.614 512,694.54C510.643,694.466 508.513,693.06 508.271,691.468C502.48,653.43 495.52,598.88 486.484,572.812C483.488,564.169 478.195,555.884 471.143,550.057C463.275,543.556 451.058,535.644 439.277,533.804C408.876,529.057 326.175,520.201 302.963,516.794Z"/>
            </g>
        </g>
        <g transform="matrix(0.999091,0,0,0.995837,1084.41,4616.38)">
            <g id="star1" serif:id="star" transform="matrix(0.274568,0,0,0.275465,227.438,469.299)">
                <path d="M302.963,516.794C301.468,516.574 300.006,514.635 300.006,513.358C300.006,512.082 301.264,509.404 302.961,509.134C326.81,505.338 415.696,495.69 443.099,490.58C451.988,488.923 460.346,484.164 467.377,478.478C479.962,468.3 487.382,454.546 491.43,439.96C498.227,415.465 504.733,350.027 508.161,331.507C508.445,329.974 510.683,328.788 512,328.836C513.317,328.883 515.76,330.145 516.065,331.792C519.461,350.177 526.91,415.952 532.38,439.145C535.122,450.77 541.485,462.632 548.886,470.949C556.255,479.23 565.951,486.7 576.785,489.046C605.632,495.293 697.352,504.361 721.969,508.431C723.821,508.737 724.763,511.957 724.488,513.467C724.213,514.976 722.228,517.196 720.319,517.487C697.609,520.949 615.442,529.38 588.229,534.24C577.217,536.207 565.321,539.118 557.046,546.646C547.748,555.104 536.534,570.363 532.443,584.987C525.671,609.198 519.44,672.648 516.414,691.91C516.148,693.602 513.357,694.614 512,694.54C510.643,694.466 508.513,693.06 508.271,691.468C502.48,653.43 495.52,598.88 486.484,572.812C483.488,564.169 478.195,555.884 471.143,550.057C463.275,543.556 451.058,535.644 439.277,533.804C408.876,529.057 326.175,520.201 302.963,516.794Z"/>
            </g>
        </g>
        <g transform="matrix(0.999091,0,0,0.995837,1084.41,4616.38)">
            <g id="star2" serif:id="star" transform="matrix(0.178949,0,0,0.179534,547.01,333.573)">
                <path d="M302.963,516.794C301.468,516.574 300.006,514.635 300.006,513.358C300.006,512.082 301.264,509.404 302.961,509.134C326.81,505.338 415.696,495.69 443.099,490.58C451.988,488.923 460.346,484.164 467.377,478.478C479.962,468.3 487.382,454.546 491.43,439.96C498.227,415.465 504.733,350.027 508.161,331.507C508.445,329.974 510.683,328.788 512,328.836C513.317,328.883 515.76,330.145 516.065,331.792C519.461,350.177 526.91,415.952 532.38,439.145C535.122,450.77 541.485,462.632 548.886,470.949C556.255,479.23 565.951,486.7 576.785,489.046C605.632,495.293 697.352,504.361 721.969,508.431C723.821,508.737 724.763,511.957 724.488,513.467C724.213,514.976 722.228,517.196 720.319,517.487C697.609,520.949 615.442,529.38 588.229,534.24C577.217,536.207 565.321,539.118 557.046,546.646C547.748,555.104 536.534,570.363 532.443,584.987C525.671,609.198 519.44,672.648 516.414,691.91C516.148,693.602 513.357,694.614 512,694.54C510.643,694.466 508.513,693.06 508.271,691.468C502.48,653.43 495.52,598.88 486.484,572.812C483.488,564.169 478.195,555.884 471.143,550.057C463.275,543.556 451.058,535.644 439.277,533.804C408.876,529.057 326.175,520.201 302.963,516.794Z"/>
            </g>
        </g>
        <g transform="matrix(0.999091,0,0,0.995837,1084.41,4616.38)">
            <g id="hand-bottom" transform="matrix(-1.04729,0.000865857,-0.000863037,-1.05071,1038.41,1034.5)">
                <path d="M145.076,333.237C145.075,333.237 145.073,333.237 145.072,333.237C119.464,334.186 121.851,189.299 146.249,174.479C146.303,174.446 146.365,174.429 146.428,174.43C149.486,174.449 225.062,174.931 272.007,176.089C278.545,176.25 288.444,174.137 295.7,172.399C314.516,167.893 340.507,157.478 366.528,147.157C413.211,128.64 441.253,123.207 486.521,106.528C494.954,103.421 510.863,103.763 519.126,106.189C558.417,117.726 616.012,141.124 666.785,153.793C676.168,156.134 689.378,164.348 697.583,174.517C745.459,233.847 785.251,288.189 805.551,307.548C812.098,313.791 803.577,339.001 794.872,341.461C783.676,344.625 754.783,342.628 738.379,326.533C726.141,314.526 719.056,311.892 704.675,290.892C702.315,287.445 693.917,279.468 688.559,275.005C669.386,259.033 658.422,249.785 644.118,235.556C640.847,232.303 637.726,228.547 625.143,226.653C613.637,224.922 528.89,204.952 528.64,204.675C500.668,218.155 472.27,223.724 443.51,222.596C478.237,235.852 497.826,235.609 530.757,236.538C542.903,236.881 569.668,242.325 585.93,248.578C596.497,252.641 608.777,261.75 613.457,270.78C618.137,279.809 615.86,294.125 613.1,300.371C601.66,326.252 569.435,311.678 552.832,308.741C527.745,304.302 505.693,302.575 489.326,306.405C476.216,309.473 448.518,318.643 430.963,331.852C417.184,342.221 369.263,362.106 337.021,363.067C284.387,364.636 259.353,337.125 227.115,334.151C192.88,330.993 145.217,333.23 145.076,333.237Z"/>
                <path d="M703.652,306.282C723.145,330.397 744.335,352.188 780.545,353.394C780.545,353.394 780.624,359.836 779.906,361.446C777.891,365.96 769.111,373.125 764.199,373.562C762.871,373.68 760.186,374.004 759.438,374.073C758.704,374.141 757.248,373.847 754.652,373.197C741.849,369.993 732.746,361.78 724.433,350.734C717.47,341.482 702.453,315.731 703.652,306.282Z"/>
            </g>
        </g>
    </g>
</svg>
