<?xml version="1.0" encoding="UTF-8" standalone="no"?>
<!DOCTYPE svg PUBLIC "-//W3C//DTD SVG 1.1//EN" "http://www.w3.org/Graphics/SVG/1.1/DTD/svg11.dtd">
<svg width="100%" height="100%" viewBox="0 0 2549 222" version="1.1" xmlns="http://www.w3.org/2000/svg" xmlns:xlink="http://www.w3.org/1999/xlink" xml:space="preserve" xmlns:serif="http://www.serif.com/" style="fill-rule:evenodd;clip-rule:evenodd;stroke-linejoin:round;stroke-miterlimit:2;">
    <g transform="matrix(1,0,0,1,-5240.22,-5966.71)">
        <g transform="matrix(1.85602,0,0,0.611498,997.776,5872.65)">
            <g transform="matrix(0.851303,0,0,1.63533,336.318,-2.89139)">
                <g transform="matrix(1,0,0,1,0,9)">
                    <path d="M2319.71,303.824L2389.65,303.824C2392.6,303.824 2394.92,302.574 2396.61,300.074C2398.3,297.574 2399.14,294.658 2399.14,291.324C2399.14,287.991 2398.3,285.074 2396.61,282.574C2394.92,280.074 2392.6,278.824 2389.65,278.824L2319.71,278.824C2316.76,278.824 2314.44,280.074 2312.75,282.574C2311.06,285.074 2310.22,287.991 2310.22,291.324C2310.22,294.658 2311.06,297.574 2312.75,300.074C2314.44,302.574 2316.76,303.824 2319.71,303.824ZM2299.46,271.824L2328.89,271.824C2331.84,271.824 2334.16,270.574 2335.85,268.074C2337.54,265.574 2338.38,262.658 2338.38,259.324C2338.38,255.991 2337.54,253.074 2335.85,250.574C2334.16,248.074 2331.84,246.824 2328.89,246.824L2299.46,246.824C2296.51,246.824 2294.19,248.074 2292.5,250.574C2290.81,253.074 2289.97,255.991 2289.97,259.324C2289.97,262.658 2290.81,265.574 2292.5,268.074C2294.19,270.574 2296.51,271.824 2299.46,271.824ZM2380.47,271.824L2409.9,271.824C2412.85,271.824 2415.17,270.574 2416.86,268.074C2418.55,265.574 2419.39,262.658 2419.39,259.324C2419.39,255.991 2418.55,253.074 2416.86,250.574C2415.17,248.074 2412.85,246.824 2409.9,246.824L2380.47,246.824C2377.52,246.824 2375.2,248.074 2373.51,250.574C2371.82,253.074 2370.98,255.991 2370.98,259.324C2370.98,262.658 2371.82,265.574 2373.51,268.074C2375.2,270.574 2377.52,271.824 2380.47,271.824ZM2380.47,239.824L2409.9,239.824C2412.85,239.824 2415.17,238.574 2416.86,236.074C2418.55,233.574 2419.39,230.658 2419.39,227.324C2419.39,223.991 2418.55,221.074 2416.86,218.574C2415.17,216.074 2412.85,214.824 2409.9,214.824L2380.47,214.824C2377.52,214.824 2375.2,216.074 2373.51,218.574C2371.82,221.074 2370.98,223.991 2370.98,227.324C2370.98,230.658 2371.82,233.574 2373.51,236.074C2375.2,238.574 2377.52,239.824 2380.47,239.824ZM2319.71,207.824L2389.65,207.824C2392.6,207.824 2394.92,206.574 2396.61,204.074C2398.3,201.574 2399.14,198.658 2399.14,195.324C2399.14,191.991 2398.3,189.074 2396.61,186.574C2394.92,184.074 2392.6,182.824 2389.65,182.824L2319.71,182.824C2316.76,182.824 2314.44,184.074 2312.75,186.574C2311.06,189.074 2310.22,191.991 2310.22,195.324C2310.22,198.658 2311.06,201.574 2312.75,204.074C2314.44,206.574 2316.76,207.824 2319.71,207.824ZM2299.46,175.824L2328.89,175.824C2331.84,175.824 2334.16,174.574 2335.85,172.074C2337.54,169.574 2338.38,166.658 2338.38,163.324C2338.38,159.991 2337.54,157.074 2335.85,154.574C2334.16,152.074 2331.84,150.824 2328.89,150.824L2299.46,150.824C2296.51,150.824 2294.19,152.074 2292.5,154.574C2290.81,157.074 2289.97,159.991 2289.97,163.324C2289.97,166.658 2290.81,169.574 2292.5,172.074C2294.19,174.574 2296.51,175.824 2299.46,175.824ZM2299.46,143.824L2328.89,143.824C2331.84,143.824 2334.16,142.574 2335.85,140.074C2337.54,137.574 2338.38,134.658 2338.38,131.324C2338.38,127.991 2337.54,125.074 2335.85,122.574C2334.16,120.074 2331.84,118.824 2328.89,118.824L2299.46,118.824C2296.51,118.824 2294.19,120.074 2292.5,122.574C2290.81,125.074 2289.97,127.991 2289.97,131.324C2289.97,134.658 2290.81,137.574 2292.5,140.074C2294.19,142.574 2296.51,143.824 2299.46,143.824ZM2380.47,143.824L2409.9,143.824C2412.85,143.824 2415.17,142.574 2416.86,140.074C2418.55,137.574 2419.39,134.658 2419.39,131.324C2419.39,127.991 2418.55,125.074 2416.86,122.574C2415.17,120.074 2412.85,118.824 2409.9,118.824L2380.47,118.824C2377.52,118.824 2375.2,120.074 2373.51,122.574C2371.82,125.074 2370.98,127.991 2370.98,131.324C2370.98,134.658 2371.82,137.574 2373.51,140.074C2375.2,142.574 2377.52,143.824 2380.47,143.824ZM2319.71,111.824L2389.65,111.824C2392.6,111.824 2394.92,110.574 2396.61,108.074C2398.3,105.574 2399.14,102.658 2399.14,99.324C2399.14,95.991 2398.3,93.074 2396.61,90.574C2394.92,88.074 2392.6,86.824 2389.65,86.824L2319.71,86.824C2316.76,86.824 2314.44,88.074 2312.75,90.574C2311.06,93.074 2310.22,95.991 2310.22,99.324C2310.22,102.658 2311.06,105.574 2312.75,108.074C2314.44,110.574 2316.76,111.824 2319.71,111.824Z" style="fill-rule:nonzero;"/>
                </g>
                <g transform="matrix(1,0,0,0.938982,-4.54747e-13,15.1468)">
                    <path d="M2450.11,134.19C2450.11,131.406 2451.45,129.148 2453.11,129.148L2453.11,129.148C2454.76,129.148 2456.11,131.406 2456.11,134.19L2456.11,239.228C2456.11,250.492 2457.89,260.903 2461.45,270.46C2465.02,280.018 2469.82,287.612 2475.87,293.244C2481.92,298.876 2488.51,301.692 2495.64,301.692C2502.77,301.692 2509.36,298.876 2515.41,293.244C2521.45,287.612 2526.26,280.018 2529.83,270.46C2533.39,260.903 2535.17,250.492 2535.17,239.228L2535.17,134.19C2535.17,131.406 2536.51,129.148 2538.17,129.148L2538.17,129.148C2539.83,129.148 2541.17,131.406 2541.17,134.19L2541.17,239.228C2541.17,252.199 2539.11,264.188 2535.01,275.196C2530.91,286.204 2525.37,294.951 2518.4,301.436C2511.44,307.922 2503.85,311.164 2495.64,311.164C2487.43,311.164 2479.84,307.922 2472.88,301.436C2465.91,294.951 2460.37,286.204 2456.27,275.196C2452.16,264.188 2450.11,252.199 2450.11,239.228L2450.11,134.19Z" style="fill-rule:nonzero;stroke:black;stroke-width:10px;"/>
                </g>
                <g transform="matrix(1,0,0,0.959218,-2.27374e-13,12.5332)">
                    <path d="M2584.1,302.387C2584.1,303.697 2583.79,304.952 2583.22,305.878C2582.66,306.804 2581.9,307.324 2581.11,307.324C2580.31,307.324 2579.55,306.804 2578.99,305.878C2578.42,304.952 2578.11,303.697 2578.11,302.387C2578.11,278.204 2578.11,172.09 2578.11,139.023C2578.11,136.404 2578.74,133.893 2579.86,132.041C2580.99,130.189 2582.51,129.148 2584.1,129.148L2623.47,129.148C2631.03,129.148 2638.03,131.708 2644.45,136.828C2650.88,141.948 2655.99,149.202 2659.77,158.588C2663.55,167.975 2665.44,178.812 2665.44,191.1C2665.44,202.876 2663.52,213.714 2659.68,223.612C2655.85,233.511 2650.64,241.106 2644.05,246.396C2638.33,251.004 2631.47,253.308 2623.47,253.308L2584.1,253.308L2584.1,302.387ZM2584.1,243.836L2623.47,243.836C2630.39,243.836 2636.06,242.13 2640.49,238.716C2646.21,234.45 2650.8,228.05 2654.26,219.516C2657.71,210.983 2659.44,201.511 2659.44,191.1C2659.44,180.86 2657.71,171.474 2654.26,162.94C2650.8,154.407 2646.16,148.007 2640.32,143.74C2635.89,140.327 2630.28,138.62 2623.47,138.62L2584.1,138.62L2584.1,243.836Z" style="fill-rule:nonzero;stroke:black;stroke-width:9.95px;"/>
                </g>
                <g transform="matrix(1,0,0,0.959218,-2.27374e-13,12.5332)">
                    <path d="M2696.55,140.662C2696.55,134.303 2699.68,129.148 2703.53,129.148C2720.21,129.148 2761.76,129.148 2773.06,129.148C2774.65,129.148 2775.94,131.268 2775.94,133.884C2775.94,133.884 2775.94,133.885 2775.94,133.885C2775.94,135.141 2775.63,136.346 2775.09,137.234C2774.55,138.122 2773.82,138.62 2773.06,138.62L2702.54,138.62L2702.54,210.812L2763.5,210.812C2765.09,210.812 2766.38,212.932 2766.38,215.548C2766.38,215.548 2766.38,215.549 2766.38,215.549C2766.38,218.164 2765.09,220.284 2763.5,220.284C2751.07,220.284 2702.54,220.284 2702.54,220.284L2702.54,297.852L2773.06,297.852C2773.82,297.852 2774.55,298.351 2775.09,299.239C2775.63,300.127 2775.94,301.332 2775.94,302.588L2775.94,302.589C2775.94,305.204 2774.65,307.324 2773.06,307.324C2761.76,307.324 2720.21,307.324 2703.53,307.324C2699.68,307.324 2696.55,302.169 2696.55,295.81C2696.55,263.606 2696.55,172.866 2696.55,140.662Z" style="fill-rule:nonzero;stroke:black;stroke-width:9.95px;"/>
                </g>
                <g transform="matrix(1,0,0,0.959218,-2.27374e-13,12.5332)">
                    <path d="M2879.79,135.036C2886.27,139.815 2891.38,146.898 2895.1,156.284C2898.83,165.671 2900.69,176.082 2900.69,187.516C2900.69,200.828 2898.13,212.732 2893,223.228C2887.87,233.724 2881.3,240.679 2873.31,244.092C2873.31,244.092 2890.94,282.959 2898.55,299.749C2899.2,301.186 2899.31,303.105 2898.82,304.709C2898.33,306.312 2897.34,307.324 2896.25,307.324C2896.11,307.324 2895.97,307.324 2895.85,307.324C2895.22,307.324 2894.64,306.841 2894.27,306.02C2890.26,297.135 2867.15,245.884 2867.15,245.884L2861.97,246.14L2821.3,246.14L2821.3,302.387C2821.3,303.697 2820.99,304.952 2820.42,305.878C2819.86,306.804 2819.1,307.324 2818.3,307.324C2817.51,307.324 2816.75,306.804 2816.18,305.878C2815.62,304.952 2815.31,303.697 2815.31,302.387C2815.31,278.558 2815.31,175.177 2815.31,140.521C2815.31,137.505 2816.03,134.612 2817.33,132.479C2818.62,130.347 2820.38,129.148 2822.21,129.148C2834.35,129.148 2858.24,129.148 2858.24,129.148C2862.99,129.148 2867.07,129.618 2870.47,130.556C2873.88,131.495 2876.98,132.988 2879.79,135.036ZM2863.59,236.668C2869.21,236.668 2874.39,234.45 2879.14,230.012C2883.9,225.575 2887.68,219.602 2890.49,212.092C2893.29,204.583 2894.7,196.391 2894.7,187.516C2894.7,177.618 2893.05,168.658 2889.76,160.636C2886.46,152.615 2881.9,146.642 2876.07,142.716C2871.85,139.986 2865.91,138.62 2858.24,138.62L2821.3,138.62L2821.3,236.668L2863.59,236.668Z" style="fill-rule:nonzero;stroke:black;stroke-width:9.95px;"/>
                </g>
                <g transform="matrix(1,0,0,1,-0.863291,10.2604)">
                    <path d="M2941.07,303.824L3031.25,303.824C3034.21,303.824 3036.53,302.574 3038.21,300.074C3039.9,297.574 3040.75,294.658 3040.75,291.324C3040.75,287.991 3039.9,285.074 3038.21,282.574C3036.53,280.074 3034.21,278.824 3031.25,278.824L2941.07,278.824C2938.11,278.824 2935.79,280.074 2934.1,282.574C2932.41,285.074 2931.57,287.991 2931.57,291.324C2931.57,294.658 2932.41,297.574 2934.1,300.074C2935.79,302.574 2938.11,303.824 2941.07,303.824ZM2941.07,271.824L2970.49,271.824C2973.45,271.824 2975.77,270.574 2977.46,268.074C2979.14,265.574 2979.99,262.658 2979.99,259.324C2979.99,255.991 2979.14,253.074 2977.46,250.574C2975.77,248.074 2973.45,246.824 2970.49,246.824L2941.07,246.824C2938.11,246.824 2935.79,248.074 2934.1,250.574C2932.41,253.074 2931.57,255.991 2931.57,259.324C2931.57,262.658 2932.41,265.574 2934.1,268.074C2935.79,270.574 2938.11,271.824 2941.07,271.824ZM3022.08,271.824L3051.51,271.824C3054.46,271.824 3056.78,270.574 3058.47,268.074C3060.16,265.574 3061,262.658 3061,259.324C3061,255.991 3060.16,253.074 3058.47,250.574C3056.78,248.074 3054.46,246.824 3051.51,246.824L3022.08,246.824C3019.12,246.824 3016.8,248.074 3015.11,250.574C3013.43,253.074 3012.58,255.991 3012.58,259.324C3012.58,262.658 3013.43,265.574 3015.11,268.074C3016.8,270.574 3019.12,271.824 3022.08,271.824ZM2941.07,239.824L2970.49,239.824C2973.45,239.824 2975.77,238.574 2977.46,236.074C2979.14,233.574 2979.99,230.658 2979.99,227.324C2979.99,223.991 2979.14,221.074 2977.46,218.574C2975.77,216.074 2973.45,214.824 2970.49,214.824L2941.07,214.824C2938.11,214.824 2935.79,216.074 2934.1,218.574C2932.41,221.074 2931.57,223.991 2931.57,227.324C2931.57,230.658 2932.41,233.574 2934.1,236.074C2935.79,238.574 2938.11,239.824 2941.07,239.824ZM3022.08,239.824L3051.51,239.824C3054.46,239.824 3056.78,238.574 3058.47,236.074C3060.16,233.574 3061,230.658 3061,227.324C3061,223.991 3060.16,221.074 3058.47,218.574C3056.78,216.074 3054.46,214.824 3051.51,214.824L3022.08,214.824C3019.12,214.824 3016.8,216.074 3015.11,218.574C3013.43,221.074 3012.58,223.991 3012.58,227.324C3012.58,230.658 3013.43,233.574 3015.11,236.074C3016.8,238.574 3019.12,239.824 3022.08,239.824ZM2941.07,207.824L3031.25,207.824C3034.21,207.824 3036.53,206.574 3038.21,204.074C3039.9,201.574 3040.75,198.658 3040.75,195.324C3040.75,191.991 3039.9,189.074 3038.21,186.574C3036.53,184.074 3034.21,182.824 3031.25,182.824L2941.07,182.824C2938.11,182.824 2935.79,184.074 2934.1,186.574C2932.41,189.074 2931.57,191.991 2931.57,195.324C2931.57,198.658 2932.41,201.574 2934.1,204.074C2935.79,206.574 2938.11,207.824 2941.07,207.824ZM2941.07,175.824L2970.49,175.824C2973.45,175.824 2975.77,174.574 2977.46,172.074C2979.14,169.574 2979.99,166.658 2979.99,163.324C2979.99,159.991 2979.14,157.074 2977.46,154.574C2975.77,152.074 2973.45,150.824 2970.49,150.824L2941.07,150.824C2938.11,150.824 2935.79,152.074 2934.1,154.574C2932.41,157.074 2931.57,159.991 2931.57,163.324C2931.57,166.658 2932.41,169.574 2934.1,172.074C2935.79,174.574 2938.11,175.824 2941.07,175.824ZM3022.08,175.824L3051.51,175.824C3054.46,175.824 3056.78,174.574 3058.47,172.074C3060.16,169.574 3061,166.658 3061,163.324C3061,159.991 3060.16,157.074 3058.47,154.574C3056.78,152.074 3054.46,150.824 3051.51,150.824L3022.08,150.824C3019.12,150.824 3016.8,152.074 3015.11,154.574C3013.43,157.074 3012.58,159.991 3012.58,163.324C3012.58,166.658 3013.43,169.574 3015.11,172.074C3016.8,174.574 3019.12,175.824 3022.08,175.824ZM2941.07,143.824L2970.49,143.824C2973.45,143.824 2975.77,142.574 2977.46,140.074C2979.14,137.574 2979.99,134.658 2979.99,131.324C2979.99,127.991 2979.14,125.074 2977.46,122.574C2975.77,120.074 2973.45,118.824 2970.49,118.824L2941.07,118.824C2938.11,118.824 2935.79,120.074 2934.1,122.574C2932.41,125.074 2931.57,127.991 2931.57,131.324C2931.57,134.658 2932.41,137.574 2934.1,140.074C2935.79,142.574 2938.11,143.824 2941.07,143.824ZM3022.08,143.824L3051.51,143.824C3054.46,143.824 3056.78,142.574 3058.47,140.074C3060.16,137.574 3061,134.658 3061,131.324C3061,127.991 3060.16,125.074 3058.47,122.574C3056.78,120.074 3054.46,118.824 3051.51,118.824L3022.08,118.824C3019.12,118.824 3016.8,120.074 3015.11,122.574C3013.43,125.074 3012.58,127.991 3012.58,131.324C3012.58,134.658 3013.43,137.574 3015.11,140.074C3016.8,142.574 3019.12,143.824 3022.08,143.824ZM2941.07,111.824L3031.25,111.824C3034.21,111.824 3036.53,110.574 3038.21,108.074C3039.9,105.574 3040.75,102.658 3040.75,99.324C3040.75,95.991 3039.9,93.074 3038.21,90.574C3036.53,88.074 3034.21,86.824 3031.25,86.824L2941.07,86.824C2938.11,86.824 2935.79,88.074 2934.1,90.574C2932.41,93.074 2931.57,95.991 2931.57,99.324C2931.57,102.658 2932.41,105.574 2934.1,108.074C2935.79,110.574 2938.11,111.824 2941.07,111.824Z" style="fill-rule:nonzero;"/>
                </g>
                <g transform="matrix(1,0,0,0.941653,-1.13687e-12,14.4616)">
                    <path d="M3091.72,134.176C3091.72,132.842 3092.03,131.564 3092.59,130.621C3093.16,129.678 3093.92,129.148 3094.71,129.148L3094.71,129.148C3095.51,129.148 3096.27,129.678 3096.83,130.621C3097.39,131.564 3097.71,132.842 3097.71,134.176C3097.71,155.729 3097.71,239.228 3097.71,239.228C3097.71,250.492 3099.49,260.903 3103.06,270.46C3106.62,280.018 3111.43,287.612 3117.48,293.244C3123.53,298.876 3130.12,301.692 3137.24,301.692C3144.37,301.692 3150.96,298.876 3157.01,293.244C3163.06,287.612 3167.87,280.018 3171.43,270.46C3174.99,260.903 3176.78,250.492 3176.78,239.228L3176.78,134.178C3176.78,131.4 3178.12,129.148 3179.77,129.148C3181.43,129.148 3182.77,131.4 3182.77,134.178C3182.77,155.734 3182.77,239.228 3182.77,239.228C3182.77,252.199 3180.72,264.188 3176.62,275.196C3172.51,286.204 3166.97,294.951 3160.01,301.436C3153.04,307.922 3145.45,311.164 3137.24,311.164C3129.03,311.164 3121.45,307.922 3114.48,301.436C3107.51,294.951 3101.98,286.204 3097.87,275.196C3093.77,264.188 3091.72,252.199 3091.72,239.228L3091.72,134.176Z" style="fill-rule:nonzero;stroke:black;stroke-width:10px;"/>
                </g>
                <g transform="matrix(1,0,0,0.961948,-9.09495e-13,11.8406)">
                    <path d="M3290.87,129.148C3291.64,129.148 3292.37,129.647 3292.91,130.535C3293.45,131.423 3293.76,132.627 3293.76,133.883C3293.76,133.884 3293.76,133.885 3293.76,133.886C3293.76,135.142 3293.45,136.346 3292.91,137.234C3292.37,138.122 3291.64,138.62 3290.87,138.62C3282.72,138.62 3260.06,138.62 3260.06,138.62L3260.06,297.852L3290.87,297.852C3291.64,297.852 3292.37,298.351 3292.91,299.239C3293.45,300.127 3293.76,301.331 3293.76,302.587C3293.76,302.588 3293.76,302.589 3293.76,302.59C3293.76,303.846 3293.45,305.05 3292.91,305.938C3292.37,306.826 3291.64,307.324 3290.87,307.324C3279.17,307.324 3235.27,307.324 3223.57,307.324C3222.8,307.324 3222.07,306.826 3221.53,305.938C3220.99,305.05 3220.68,303.846 3220.68,302.59C3220.68,302.589 3220.68,302.588 3220.68,302.587C3220.68,299.972 3221.97,297.852 3223.57,297.852C3231.7,297.852 3254.22,297.852 3254.22,297.852L3254.22,138.62L3223.57,138.62C3221.97,138.62 3220.68,136.501 3220.68,133.886C3220.68,133.885 3220.68,133.884 3220.68,133.883C3220.68,132.627 3220.99,131.423 3221.53,130.535C3222.07,129.647 3222.8,129.148 3223.57,129.148C3235.27,129.148 3279.17,129.148 3290.87,129.148Z" style="fill-rule:nonzero;stroke:black;stroke-width:9.94px;"/>
                </g>
                <g transform="matrix(1,0,0,0.961948,-9.09495e-13,11.8406)">
                    <path d="M3349.86,307.324C3347.83,307.324 3345.88,305.998 3344.45,303.638C3343.01,301.277 3342.2,298.076 3342.2,294.737C3342.2,258.936 3342.2,157.602 3342.2,134.072C3342.2,131.353 3343.54,129.148 3345.2,129.148C3345.99,129.148 3346.76,129.667 3347.32,130.59C3347.88,131.514 3348.2,132.766 3348.2,134.072C3348.2,161.86 3348.2,297.852 3348.2,297.852L3423.89,297.852C3424.66,297.852 3425.39,298.351 3425.93,299.239C3426.47,300.127 3426.78,301.331 3426.78,302.587C3426.78,302.588 3426.78,302.589 3426.78,302.59C3426.78,303.846 3426.47,305.05 3425.93,305.938C3425.39,306.826 3424.66,307.324 3423.89,307.324C3412.17,307.324 3367.86,307.324 3349.86,307.324Z" style="fill-rule:nonzero;stroke:black;stroke-width:9.94px;"/>
                </g>
                <g transform="matrix(1,0,0,0.961948,-9.09495e-13,11.8406)">
                    <path d="M3495.8,129.148C3504.01,129.148 3511.59,132.391 3518.56,138.876C3525.53,145.362 3531.06,154.108 3535.17,165.116C3539.27,176.124 3541.33,188.114 3541.33,201.084L3541.33,235.388C3541.33,248.359 3539.27,260.348 3535.17,271.356C3531.06,282.364 3525.53,291.111 3518.56,297.596C3511.59,304.082 3504.01,307.324 3495.8,307.324L3461.56,307.324C3457.47,307.324 3454.16,301.882 3454.16,295.168L3454.16,141.304C3454.16,134.591 3457.47,129.148 3461.56,129.148C3473.53,129.148 3495.8,129.148 3495.8,129.148ZM3535.33,201.084C3535.33,189.82 3533.55,179.41 3529.98,169.852C3526.42,160.295 3521.59,152.7 3515.48,147.068C3509.38,141.436 3502.76,138.62 3495.64,138.62L3460.15,138.62L3460.15,297.852L3495.64,297.852C3502.76,297.852 3509.38,295.036 3515.48,289.404C3521.59,283.772 3526.42,276.178 3529.98,266.62C3533.55,257.063 3535.33,246.652 3535.33,235.388L3535.33,201.084Z" style="fill-rule:nonzero;stroke:black;stroke-width:9.94px;"/>
                </g>
                <g transform="matrix(1,0,0,0.961948,-9.09495e-13,11.8406)">
                    <path d="M3577.94,138.995C3577.94,133.557 3580.63,129.148 3583.94,129.148C3599.88,129.148 3642.91,129.148 3654.45,129.148C3656.04,129.148 3657.33,131.268 3657.33,133.883C3657.33,133.884 3657.33,133.885 3657.33,133.886C3657.33,135.142 3657.03,136.346 3656.49,137.234C3655.95,138.122 3655.21,138.62 3654.45,138.62L3583.94,138.62L3583.94,210.812L3644.89,210.812C3645.66,210.812 3646.39,211.311 3646.93,212.199C3647.47,213.087 3647.77,214.291 3647.77,215.547C3647.77,215.548 3647.77,215.549 3647.77,215.55C3647.77,216.806 3647.47,218.01 3646.93,218.898C3646.39,219.786 3645.66,220.284 3644.89,220.284C3632.45,220.284 3583.94,220.284 3583.94,220.284L3583.94,297.852L3654.45,297.852C3655.21,297.852 3655.95,298.351 3656.49,299.239C3657.03,300.127 3657.33,301.331 3657.33,302.587L3657.33,302.59C3657.33,305.205 3656.04,307.324 3654.45,307.324C3642.91,307.324 3599.88,307.324 3583.94,307.324C3580.63,307.324 3577.94,302.916 3577.94,297.478C3577.94,266.327 3577.94,170.146 3577.94,138.995Z" style="fill-rule:nonzero;stroke:black;stroke-width:9.94px;"/>
                </g>
                <g transform="matrix(1,0,0,0.961948,-9.09495e-13,11.8406)">
                    <path d="M3761.19,135.036C3767.67,139.815 3772.77,146.898 3776.5,156.284C3780.23,165.671 3782.09,176.082 3782.09,187.516C3782.09,200.828 3779.52,212.732 3774.39,223.228C3769.26,233.724 3762.7,240.679 3754.71,244.092C3754.71,244.092 3771.6,281.335 3779.45,298.656C3780.2,300.302 3780.32,302.499 3779.76,304.333C3779.2,306.167 3778.05,307.324 3776.8,307.324C3776.7,307.324 3776.62,307.324 3776.54,307.324C3776.36,307.324 3776.19,307.184 3776.09,306.946C3773.76,301.797 3748.55,245.884 3748.55,245.884L3743.37,246.14L3702.7,246.14L3702.7,302.403C3702.7,305.121 3701.36,307.324 3699.7,307.324L3699.7,307.324C3698.91,307.324 3698.14,306.806 3697.58,305.883C3697.02,304.96 3696.7,303.708 3696.7,302.403C3696.7,277.209 3696.7,162.78 3696.7,135.161C3696.7,131.84 3698.34,129.148 3700.36,129.148C3710.75,129.148 3739.64,129.148 3739.64,129.148C3744.39,129.148 3748.47,129.618 3751.87,130.556C3755.27,131.495 3758.38,132.988 3761.19,135.036ZM3744.99,236.668C3750.6,236.668 3755.79,234.45 3760.54,230.012C3765.29,225.575 3769.07,219.602 3771.88,212.092C3774.69,204.583 3776.09,196.391 3776.09,187.516C3776.09,177.618 3774.45,168.658 3771.15,160.636C3767.86,152.615 3763.29,146.642 3757.46,142.716C3753.25,139.986 3747.31,138.62 3739.64,138.62L3702.7,138.62L3702.7,236.668L3744.99,236.668Z" style="fill-rule:nonzero;stroke:black;stroke-width:9.94px;"/>
                </g>
                <g transform="matrix(1,0,0,0.961948,-9.09495e-13,11.8406)">
                    <path d="M3859.05,222.076C3849.87,219.175 3842.39,215.975 3836.61,212.476C3830.83,208.978 3826.29,204.199 3823,198.14C3819.7,192.082 3818.06,184.274 3818.06,174.716C3818.06,164.818 3819.7,156.114 3823,148.604C3826.29,141.095 3830.94,135.292 3836.93,131.196C3842.93,127.1 3849.87,125.052 3857.75,125.052C3865.31,125.052 3872.25,127.57 3878.57,132.604C3884.89,137.639 3889.89,144.679 3893.56,153.724C3896.49,160.949 3898.26,168.99 3898.85,177.848C3898.95,179.584 3898.61,181.314 3897.89,182.609C3897.18,183.904 3896.17,184.643 3895.11,184.643C3895.1,184.7 3895.1,184.7 3895.09,184.7C3893.98,184.7 3893.07,183.269 3893.01,181.445C3892.71,172.707 3891.16,164.918 3888.38,158.076C3885.24,150.396 3880.98,144.466 3875.58,140.284C3870.17,136.103 3864.18,134.012 3857.59,134.012C3851.76,134.012 3846.3,135.463 3841.23,138.364C3836.15,141.266 3832.02,145.703 3828.83,151.676C3825.65,157.65 3824.05,165.159 3824.05,174.204C3824.05,182.396 3825.57,188.924 3828.59,193.788C3831.61,198.652 3835.56,202.364 3840.42,204.924C3845.28,207.484 3852.08,210.215 3860.83,213.116C3869.69,216.018 3876.57,218.791 3881.49,221.436C3886.4,224.082 3890.56,228.476 3893.97,234.62C3897.37,240.764 3899.07,249.383 3899.07,260.476C3899.07,271.57 3897.2,280.914 3893.48,288.508C3889.75,296.103 3884.81,301.778 3878.65,305.532C3872.5,309.287 3865.8,311.164 3858.56,311.164C3849.6,311.164 3841.71,308.519 3834.91,303.228C3828.1,297.938 3822.89,290.471 3819.27,280.828C3816.32,272.964 3814.57,264.164 3814.03,254.427C3813.94,252.703 3814.3,250.996 3815.01,249.722C3815.72,248.447 3816.72,247.722 3817.78,247.722C3817.79,247.676 3817.8,247.676 3817.81,247.676C3818.93,247.677 3819.85,249.123 3819.89,250.958C3820.17,260.524 3821.69,268.988 3824.46,276.348C3827.54,284.54 3831.99,290.898 3837.82,295.42C3843.66,299.943 3850.57,302.204 3858.56,302.204C3868.5,302.204 3876.74,298.45 3883.27,290.94C3889.81,283.431 3893.07,273.191 3893.07,260.22C3893.07,251.346 3891.67,244.519 3888.86,239.74C3886.05,234.962 3882.51,231.506 3878.25,229.372C3873.98,227.239 3867.58,224.807 3859.05,222.076Z" style="fill-rule:nonzero;stroke:black;stroke-width:9.94px;"/>
                </g>
            </g>
        </g>
    </g>
</svg>
