<?xml version="1.0" encoding="UTF-8" standalone="no"?>
<!DOCTYPE svg PUBLIC "-//W3C//DTD SVG 1.1//EN" "http://www.w3.org/Graphics/SVG/1.1/DTD/svg11.dtd">
<svg width="100%" height="100%" viewBox="0 0 1000 1000" version="1.1" xmlns="http://www.w3.org/2000/svg" xmlns:xlink="http://www.w3.org/1999/xlink" xml:space="preserve" xmlns:serif="http://www.serif.com/" style="fill-rule:evenodd;clip-rule:evenodd;stroke-linecap:round;stroke-linejoin:round;stroke-miterlimit:1.5;">
    <g transform="matrix(1,0,0,1,-10641.8,-1439.72)">
        <g id="color-test">
        </g>
        <g id="logo-hands-text-new-black" transform="matrix(0.999091,0,0,0.995837,10639.3,1439.39)">
            <g id="plus-text">
                <rect id="logo-hands-text-new-black1" serif:id="logo-hands-text-new-black" x="2.581" y="0.336" width="1000.91" height="1004.18" style="fill:none;"/>
                <clipPath id="_clip1">
                    <rect id="logo-hands-text-new-black2" serif:id="logo-hands-text-new-black" x="2.581" y="0.336" width="1000.91" height="1004.18"/>
                </clipPath>
                <g clip-path="url(#_clip1)">
                    <g transform="matrix(1.00153,0,0,1.01037,3.18479,-2.51988)">
                        <rect x="-0.602" y="2.826" width="999.38" height="993.873" style="fill:white;"/>
                    </g>
                    <g transform="matrix(1.00153,0,0,1.01037,3.18479,-2.51988)">
                        <rect x="-0.602" y="2.826" width="999.38" height="993.873" style="fill:white;"/>
                    </g>
                    <g id="hand-top" transform="matrix(0.809974,0,0,0.812621,89.1539,30.3738)">
                        <path d="M145.077,333.237C145.076,333.237 145.074,333.237 145.073,333.237C119.472,334.188 121.849,189.397 146.224,174.494C146.294,174.452 146.374,174.43 146.456,174.43C149.922,174.452 225.198,174.934 272.007,176.089C278.545,176.25 288.444,174.137 295.7,172.399C314.516,167.893 340.507,157.478 366.528,147.157C413.211,128.64 441.253,123.207 486.521,106.528C494.954,103.421 510.863,103.763 519.126,106.189C558.417,117.726 616.012,141.124 666.785,153.793C676.168,156.134 689.378,164.348 697.583,174.517C745.459,233.847 785.251,288.189 805.551,307.548C812.098,313.791 803.577,339.001 794.872,341.461C783.676,344.625 754.783,342.628 738.379,326.533C726.141,314.526 719.056,311.892 704.675,290.892C702.315,287.445 693.917,279.468 688.559,275.005C669.386,259.033 658.422,249.785 644.118,235.556C640.847,232.303 637.726,228.547 625.143,226.653C613.637,224.922 528.89,204.952 528.64,204.675C500.668,218.155 472.27,223.724 443.51,222.596C478.237,235.852 497.826,235.609 530.757,236.538C542.903,236.881 569.668,242.325 585.93,248.578C596.497,252.641 608.777,261.75 613.457,270.78C618.137,279.809 615.86,294.125 613.1,300.371C601.66,326.252 569.435,311.678 552.832,308.741C527.745,304.302 505.693,302.575 489.326,306.405C476.216,309.473 448.518,318.643 430.963,331.852C417.184,342.221 369.263,362.106 337.021,363.067C284.387,364.636 259.353,337.125 227.115,334.151C192.944,330.998 145.394,333.222 145.077,333.237Z"/>
                        <path d="M703.652,306.282C723.145,330.397 744.335,352.188 780.545,353.394C780.545,353.394 780.624,359.836 779.906,361.446C777.891,365.96 769.111,373.125 764.199,373.562C762.871,373.68 760.186,374.004 759.438,374.073C758.704,374.141 757.248,373.847 754.652,373.197C741.849,369.993 732.746,361.78 724.433,350.734C717.47,341.482 702.453,315.731 703.652,306.282Z"/>
                    </g>
                    <g id="star" transform="matrix(0.809974,0,0,0.812621,89.1539,30.3738)">
                        <path d="M302.963,516.794C301.468,516.574 300.006,514.635 300.006,513.358C300.006,512.082 301.264,509.404 302.961,509.134C326.81,505.338 415.696,495.69 443.099,490.58C451.988,488.923 460.346,484.164 467.377,478.478C479.962,468.3 487.382,454.546 491.43,439.96C498.227,415.465 504.733,350.027 508.161,331.507C508.445,329.974 510.683,328.788 512,328.836C513.317,328.883 515.76,330.145 516.065,331.792C519.461,350.177 526.91,415.952 532.38,439.145C535.122,450.77 541.485,462.632 548.886,470.949C556.255,479.23 565.951,486.7 576.785,489.046C605.632,495.293 697.352,504.361 721.969,508.431C723.821,508.737 724.763,511.957 724.488,513.467C724.213,514.976 722.228,517.196 720.319,517.487C697.609,520.949 615.442,529.38 588.229,534.24C577.217,536.207 565.321,539.118 557.046,546.646C547.748,555.104 536.534,570.363 532.443,584.987C525.671,609.198 519.44,672.648 516.414,691.91C516.148,693.602 513.357,694.614 512,694.54C510.643,694.466 508.513,693.06 508.271,691.468C502.48,653.43 495.52,598.88 486.484,572.812C483.488,564.169 478.195,555.884 471.143,550.057C463.275,543.556 451.058,535.644 439.277,533.804C408.876,529.057 326.175,520.201 302.963,516.794Z" style="stroke:black;stroke-width:1.24px;"/>
                        <path d="M467.377,423.276C462.191,410.55 457.005,397.825 451.82,385.1" style="stroke:black;stroke-width:17.3px;"/>
                        <path d="M443.516,449.912C423.794,430.533 404.072,411.155 384.35,391.776" style="stroke:black;stroke-width:17.3px;"/>
                        <path d="M406.253,466.691C393.568,461.098 380.883,455.505 368.198,449.912" style="stroke:black;stroke-width:17.3px;"/>
                        <path d="M412.212,559.767C401.37,565.166 390.528,570.565 379.686,575.964" style="stroke:black;stroke-width:17.3px;"/>
                        <path d="M449.681,576.77C426.729,602.723 403.777,628.676 380.825,654.63" style="stroke:black;stroke-width:17.3px;"/>
                        <path d="M465.954,603.041C461.337,615.402 456.719,627.762 452.102,640.122" style="stroke:black;stroke-width:17.3px;"/>
                        <path d="M558.137,601.866C562.859,614.658 567.581,627.45 572.303,640.242" style="stroke:black;stroke-width:17.3px;"/>
                        <path d="M579.367,573.858C599.602,593.584 619.838,613.31 640.074,633.035" style="stroke:black;stroke-width:17.3px;"/>
                        <path d="M616.1,557.12C629.072,562.778 642.044,568.436 655.016,574.093" style="stroke:black;stroke-width:17.3px;"/>
                        <path d="M573.291,449.912C594.237,423.361 618.594,396.218 643.059,370.428" style="stroke:black;stroke-width:17.3px;"/>
                        <path d="M608.175,466.691C619.803,461.098 631.431,455.505 643.059,449.912" style="stroke:black;stroke-width:17.3px;"/>
                        <path d="M557.801,423.276C562.965,410.55 568.128,397.825 573.291,385.1" style="stroke:black;stroke-width:17.3px;"/>
                    </g>
                    <g id="hand-bottom" transform="matrix(-0.809974,0.000669655,-0.000667474,-0.812621,917.095,861.941)">
                        <path d="M145.077,333.237C145.076,333.237 145.074,333.237 145.073,333.237C119.472,334.188 121.849,189.397 146.224,174.494C146.294,174.452 146.374,174.43 146.456,174.43C149.922,174.452 225.198,174.934 272.007,176.089C278.545,176.25 288.444,174.137 295.7,172.399C314.516,167.893 340.507,157.478 366.528,147.157C413.211,128.64 441.253,123.207 486.521,106.528C494.954,103.421 510.863,103.763 519.126,106.189C558.417,117.726 616.012,141.124 666.785,153.793C676.168,156.134 689.378,164.348 697.583,174.517C745.459,233.847 785.251,288.189 805.551,307.548C812.098,313.791 803.577,339.001 794.872,341.461C783.676,344.625 754.783,342.628 738.379,326.533C726.141,314.526 719.056,311.892 704.675,290.892C702.315,287.445 693.917,279.468 688.559,275.005C669.386,259.033 658.422,249.785 644.118,235.556C640.847,232.303 637.726,228.547 625.143,226.653C613.637,224.922 528.89,204.952 528.64,204.675C500.668,218.155 472.27,223.724 443.51,222.596C478.237,235.852 497.826,235.609 530.757,236.538C542.903,236.881 569.668,242.325 585.93,248.578C596.497,252.641 608.777,261.75 613.457,270.78C618.137,279.809 615.86,294.125 613.1,300.371C601.66,326.252 569.435,311.678 552.832,308.741C527.745,304.302 505.693,302.575 489.326,306.405C476.216,309.473 448.518,318.643 430.963,331.852C417.184,342.221 369.263,362.106 337.021,363.067C284.387,364.636 259.353,337.125 227.115,334.151C192.944,330.998 145.394,333.222 145.077,333.237Z"/>
                        <path d="M703.652,306.282C723.145,330.397 744.335,352.188 780.545,353.394C780.545,353.394 780.624,359.836 779.906,361.446C777.891,365.96 769.111,373.125 764.199,373.562C762.871,373.68 760.186,374.004 759.438,374.073C758.704,374.141 757.248,373.847 754.652,373.197C741.849,369.993 732.746,361.78 724.433,350.734C717.47,341.482 702.453,315.731 703.652,306.282Z"/>
                    </g>
                    <g id="sb" transform="matrix(1.44605,0,0,0.918194,-3265.98,690.917)">
                        <g>
                            <g transform="matrix(0.385024,0,0,0.385024,1414.16,147.319)">
                                <path d="M2319.71,303.824L2389.65,303.824C2392.6,303.824 2394.92,302.574 2396.61,300.074C2398.3,297.574 2399.14,294.658 2399.14,291.324C2399.14,287.991 2398.3,285.074 2396.61,282.574C2394.92,280.074 2392.6,278.824 2389.65,278.824L2319.71,278.824C2316.76,278.824 2314.44,280.074 2312.75,282.574C2311.06,285.074 2310.22,287.991 2310.22,291.324C2310.22,294.658 2311.06,297.574 2312.75,300.074C2314.44,302.574 2316.76,303.824 2319.71,303.824ZM2299.46,271.824L2328.89,271.824C2331.84,271.824 2334.16,270.574 2335.85,268.074C2337.54,265.574 2338.38,262.658 2338.38,259.324C2338.38,255.991 2337.54,253.074 2335.85,250.574C2334.16,248.074 2331.84,246.824 2328.89,246.824L2299.46,246.824C2296.51,246.824 2294.19,248.074 2292.5,250.574C2290.81,253.074 2289.97,255.991 2289.97,259.324C2289.97,262.658 2290.81,265.574 2292.5,268.074C2294.19,270.574 2296.51,271.824 2299.46,271.824ZM2380.47,271.824L2409.9,271.824C2412.85,271.824 2415.17,270.574 2416.86,268.074C2418.55,265.574 2419.39,262.658 2419.39,259.324C2419.39,255.991 2418.55,253.074 2416.86,250.574C2415.17,248.074 2412.85,246.824 2409.9,246.824L2380.47,246.824C2377.52,246.824 2375.2,248.074 2373.51,250.574C2371.82,253.074 2370.98,255.991 2370.98,259.324C2370.98,262.658 2371.82,265.574 2373.51,268.074C2375.2,270.574 2377.52,271.824 2380.47,271.824ZM2380.47,239.824L2409.9,239.824C2412.85,239.824 2415.17,238.574 2416.86,236.074C2418.55,233.574 2419.39,230.658 2419.39,227.324C2419.39,223.991 2418.55,221.074 2416.86,218.574C2415.17,216.074 2412.85,214.824 2409.9,214.824L2380.47,214.824C2377.52,214.824 2375.2,216.074 2373.51,218.574C2371.82,221.074 2370.98,223.991 2370.98,227.324C2370.98,230.658 2371.82,233.574 2373.51,236.074C2375.2,238.574 2377.52,239.824 2380.47,239.824ZM2319.71,207.824L2389.65,207.824C2392.6,207.824 2394.92,206.574 2396.61,204.074C2398.3,201.574 2399.14,198.658 2399.14,195.324C2399.14,191.991 2398.3,189.074 2396.61,186.574C2394.92,184.074 2392.6,182.824 2389.65,182.824L2319.71,182.824C2316.76,182.824 2314.44,184.074 2312.75,186.574C2311.06,189.074 2310.22,191.991 2310.22,195.324C2310.22,198.658 2311.06,201.574 2312.75,204.074C2314.44,206.574 2316.76,207.824 2319.71,207.824ZM2299.46,175.824L2328.89,175.824C2331.84,175.824 2334.16,174.574 2335.85,172.074C2337.54,169.574 2338.38,166.658 2338.38,163.324C2338.38,159.991 2337.54,157.074 2335.85,154.574C2334.16,152.074 2331.84,150.824 2328.89,150.824L2299.46,150.824C2296.51,150.824 2294.19,152.074 2292.5,154.574C2290.81,157.074 2289.97,159.991 2289.97,163.324C2289.97,166.658 2290.81,169.574 2292.5,172.074C2294.19,174.574 2296.51,175.824 2299.46,175.824ZM2299.46,143.824L2328.89,143.824C2331.84,143.824 2334.16,142.574 2335.85,140.074C2337.54,137.574 2338.38,134.658 2338.38,131.324C2338.38,127.991 2337.54,125.074 2335.85,122.574C2334.16,120.074 2331.84,118.824 2328.89,118.824L2299.46,118.824C2296.51,118.824 2294.19,120.074 2292.5,122.574C2290.81,125.074 2289.97,127.991 2289.97,131.324C2289.97,134.658 2290.81,137.574 2292.5,140.074C2294.19,142.574 2296.51,143.824 2299.46,143.824ZM2380.47,143.824L2409.9,143.824C2412.85,143.824 2415.17,142.574 2416.86,140.074C2418.55,137.574 2419.39,134.658 2419.39,131.324C2419.39,127.991 2418.55,125.074 2416.86,122.574C2415.17,120.074 2412.85,118.824 2409.9,118.824L2380.47,118.824C2377.52,118.824 2375.2,120.074 2373.51,122.574C2371.82,125.074 2370.98,127.991 2370.98,131.324C2370.98,134.658 2371.82,137.574 2373.51,140.074C2375.2,142.574 2377.52,143.824 2380.47,143.824ZM2319.71,111.824L2389.65,111.824C2392.6,111.824 2394.92,110.574 2396.61,108.074C2398.3,105.574 2399.14,102.658 2399.14,99.324C2399.14,95.991 2398.3,93.074 2396.61,90.574C2394.92,88.074 2392.6,86.824 2389.65,86.824L2319.71,86.824C2316.76,86.824 2314.44,88.074 2312.75,90.574C2311.06,93.074 2310.22,95.991 2310.22,99.324C2310.22,102.658 2311.06,105.574 2312.75,108.074C2314.44,110.574 2316.76,111.824 2319.71,111.824Z"/>
                            </g>
                            <g transform="matrix(0.385024,0,0,0.36153,1414.16,149.686)">
                                <path d="M2450.11,134.192C2450.11,131.407 2451.45,129.148 2453.11,129.148C2454.76,129.148 2456.11,131.407 2456.11,134.192L2456.11,239.228C2456.11,250.492 2457.89,260.903 2461.45,270.46C2465.02,280.018 2469.82,287.612 2475.87,293.244C2481.92,298.876 2488.51,301.692 2495.64,301.692C2502.77,301.692 2509.36,298.876 2515.41,293.244C2521.45,287.612 2526.26,280.018 2529.83,270.46C2533.39,260.903 2535.17,250.492 2535.17,239.228L2535.17,134.19C2535.17,131.406 2536.51,129.148 2538.17,129.148L2538.17,129.148C2539.83,129.148 2541.17,131.406 2541.17,134.19L2541.17,239.228C2541.17,252.199 2539.11,264.188 2535.01,275.196C2530.91,286.204 2525.37,294.951 2518.4,301.436C2511.44,307.922 2503.85,311.164 2495.64,311.164C2487.43,311.164 2479.84,307.922 2472.88,301.436C2465.91,294.951 2460.37,286.204 2456.27,275.196C2452.16,264.188 2450.11,252.199 2450.11,239.228L2450.11,134.192Z"/>
                            </g>
                            <g transform="matrix(0.385024,0,0,0.36153,1414.16,149.686)">
                                <path d="M2453.11,122.226L2454.54,122.469L2455.88,123.169L2457.09,124.274L2458.14,125.731L2459,127.497L2459.66,129.532L2460.08,131.788L2460.22,134.192L2460.22,239.228C2460.22,249.165 2461.79,258.349 2464.94,266.781C2468.13,275.345 2472.44,282.141 2477.86,287.187C2483.3,292.251 2489.23,294.77 2495.64,294.77C2502.05,294.77 2507.97,292.251 2513.41,287.187C2518.83,282.141 2523.15,275.345 2526.34,266.781C2529.49,258.349 2531.06,249.165 2531.06,239.228L2531.06,134.19L2531.2,131.786L2531.62,129.531L2532.28,127.496L2533.14,125.73L2534.19,124.273L2535.4,123.169L2536.74,122.469L2538.17,122.226L2538.17,122.226L2539.6,122.469L2540.94,123.169L2542.15,124.273L2543.2,125.73L2544.06,127.496L2544.72,129.531L2545.14,131.786L2545.28,134.19L2545.28,239.228C2545.28,253.526 2543.02,266.742 2538.49,278.876C2534.02,290.877 2527.99,300.423 2520.39,307.494C2512.82,314.547 2504.57,318.087 2495.64,318.087C2486.71,318.087 2478.46,314.547 2470.88,307.494C2463.29,300.423 2457.26,290.877 2452.78,278.876C2448.26,266.742 2446,253.526 2446,239.228L2446,134.192L2446.14,131.788L2446.56,129.532L2447.21,127.497L2448.08,125.731L2449.13,124.274L2450.34,123.169L2451.68,122.469L2453.11,122.226Z"/>
                            </g>
                            <g transform="matrix(0.385024,0,0,0.369322,1414.16,148.679)">
                                <path d="M2584.1,302.387C2584.1,303.697 2583.79,304.952 2583.22,305.878C2582.66,306.804 2581.9,307.324 2581.11,307.324C2580.31,307.324 2579.55,306.804 2578.99,305.878C2578.42,304.952 2578.11,303.697 2578.11,302.387C2578.11,278.204 2578.11,172.09 2578.11,139.023C2578.11,136.404 2578.74,133.893 2579.86,132.041C2580.99,130.189 2582.51,129.148 2584.1,129.148C2596.43,129.148 2623.47,129.148 2623.47,129.148C2631.03,129.148 2638.03,131.708 2644.45,136.828C2650.88,141.948 2655.99,149.202 2659.77,158.588C2663.55,167.975 2665.44,178.812 2665.44,191.1C2665.44,202.876 2663.52,213.714 2659.68,223.612C2655.85,233.511 2650.64,241.106 2644.05,246.396C2638.33,251.004 2631.47,253.308 2623.47,253.308L2584.1,253.308L2584.1,302.387ZM2584.1,243.836L2623.47,243.836C2630.39,243.836 2636.06,242.13 2640.49,238.716C2646.21,234.45 2650.8,228.05 2654.26,219.516C2657.71,210.983 2659.44,201.511 2659.44,191.1C2659.44,180.86 2657.71,171.474 2654.26,162.94C2650.8,154.407 2646.16,148.007 2640.32,143.74C2635.89,140.327 2630.28,138.62 2623.47,138.62L2584.1,138.62L2584.1,243.836Z"/>
                            </g>
                            <g transform="matrix(0.385024,0,0,0.369322,1414.16,148.679)">
                                <path d="M2581.92,313.968C2583.8,313.346 2581.11,314.101 2581.11,314.101L2579.71,313.874L2578.38,313.209L2577.16,312.133L2576.08,310.67L2575.19,308.886L2574.53,306.87L2574.13,304.683L2573.99,302.387L2573.99,139.023C2573.99,134.607 2575.06,130.372 2576.95,127.249C2578.85,124.126 2581.42,122.372 2584.1,122.372L2623.47,122.372C2631.68,122.372 2639.27,125.17 2646.25,130.728C2653.36,136.398 2659.01,144.447 2663.19,154.842C2667.41,165.315 2669.55,177.391 2669.55,191.1C2669.55,204.197 2667.42,216.249 2663.15,227.257C2658.91,238.213 2653.15,246.63 2645.86,252.486C2639.62,257.5 2632.17,260.085 2623.47,260.085L2588.22,260.085L2588.22,302.387L2588.08,304.683L2587.68,306.87L2587.02,308.886L2586.13,310.67L2585.05,312.133L2583.83,313.209L2582.5,313.874L2581.92,313.968ZM2581.92,313.968C2581.66,314.055 2581.38,314.101 2581.11,314.101L2581.92,313.968ZM2588.22,237.06L2623.47,237.06C2629.67,237.06 2634.77,235.64 2638.74,232.579L2638.79,232.543C2643.8,228.811 2647.81,223.218 2650.84,215.755C2653.83,208.352 2655.33,200.132 2655.33,191.1C2655.33,182.228 2653.83,174.095 2650.84,166.701C2647.82,159.244 2643.75,153.662 2638.65,149.934L2638.58,149.878C2634.61,146.82 2629.57,145.397 2623.47,145.397L2588.22,145.397L2588.22,237.06Z"/>
                            </g>
                            <g transform="matrix(0.385024,0,0,0.369322,1414.16,148.679)">
                                <path d="M2696.55,140.662C2696.55,134.303 2699.68,129.148 2703.53,129.148C2720.21,129.148 2761.76,129.148 2773.06,129.148C2774.65,129.148 2775.94,131.268 2775.94,133.884C2775.94,133.884 2775.94,133.885 2775.94,133.885C2775.94,135.141 2775.63,136.346 2775.09,137.234C2774.55,138.122 2773.82,138.62 2773.06,138.62C2759.5,138.62 2702.54,138.62 2702.54,138.62L2702.54,210.812L2763.5,210.812C2765.09,210.812 2766.38,212.932 2766.38,215.548C2766.38,215.548 2766.38,215.549 2766.38,215.549C2766.38,218.164 2765.09,220.284 2763.5,220.284C2751.07,220.284 2702.54,220.284 2702.54,220.284L2702.54,297.852L2773.06,297.852C2773.82,297.852 2774.55,298.351 2775.09,299.239C2775.63,300.127 2775.94,301.332 2775.94,302.588L2775.94,302.589C2775.94,305.204 2774.65,307.324 2773.06,307.324C2761.76,307.324 2720.21,307.324 2703.53,307.324C2699.68,307.324 2696.55,302.169 2696.55,295.81C2696.55,263.606 2696.55,172.866 2696.55,140.662Z"/>
                            </g>
                            <g transform="matrix(0.385024,0,0,0.369322,1414.16,148.679)">
                                <path d="M2692.43,140.662C2692.43,130.561 2697.4,122.372 2703.53,122.372L2773.06,122.372L2774.47,122.606L2775.78,123.279L2776.97,124.342L2778,125.744L2778.85,127.443L2779.5,129.401L2779.91,131.571L2780.05,133.883L2780.05,133.885L2779.91,136.142L2779.52,138.291L2778.88,140.272L2778,142.025L2776.94,143.463L2775.74,144.521L2774.43,145.173L2773.06,145.397L2706.65,145.397L2706.65,204.036L2763.5,204.036L2764.91,204.27L2766.22,204.943L2767.41,206.006L2768.44,207.408L2769.29,209.107L2769.94,211.065L2770.35,213.235L2770.49,215.547L2770.49,215.549L2770.35,217.862L2769.94,220.032L2769.29,221.99L2768.44,223.689L2767.41,225.091L2766.22,226.153L2764.91,226.827L2763.5,227.061L2706.65,227.061L2706.65,291.076L2773.06,291.076L2774.43,291.299L2775.74,291.952L2776.94,293.01L2778,294.448L2778.88,296.201L2779.52,298.182L2779.91,300.331L2780.05,302.587L2780.05,302.589L2779.91,304.902L2779.5,307.072L2778.85,309.03L2778,310.729L2776.97,312.131L2775.78,313.193L2774.47,313.867L2773.06,314.101L2703.53,314.101C2697.4,314.101 2692.43,305.912 2692.43,295.81L2692.43,140.662Z"/>
                            </g>
                            <g transform="matrix(0.385024,0,0,0.369322,1414.16,148.679)">
                                <path d="M2879.79,135.036C2886.27,139.815 2891.38,146.898 2895.1,156.284C2898.83,165.671 2900.69,176.082 2900.69,187.516C2900.69,200.828 2898.13,212.732 2893,223.228C2887.87,233.724 2881.3,240.679 2873.31,244.092C2873.31,244.092 2890.94,282.959 2898.55,299.749C2899.2,301.186 2899.31,303.105 2898.82,304.709C2898.33,306.312 2897.34,307.324 2896.25,307.324C2896.11,307.324 2895.97,307.324 2895.85,307.324C2895.22,307.324 2894.64,306.841 2894.27,306.02C2890.26,297.135 2867.15,245.884 2867.15,245.884L2861.97,246.14L2821.3,246.14L2821.3,302.389C2821.3,303.698 2820.99,304.953 2820.42,305.879C2819.86,306.804 2819.1,307.324 2818.31,307.324C2818.3,307.324 2818.3,307.324 2818.3,307.324C2817.51,307.324 2816.75,306.804 2816.18,305.878C2815.62,304.952 2815.31,303.697 2815.31,302.387C2815.31,278.558 2815.31,175.177 2815.31,140.521C2815.31,137.505 2816.03,134.612 2817.33,132.479C2818.62,130.347 2820.38,129.148 2822.21,129.148C2834.35,129.148 2858.24,129.148 2858.24,129.148C2862.99,129.148 2867.07,129.618 2870.47,130.556C2873.88,131.495 2876.98,132.988 2879.79,135.036ZM2863.59,236.668C2869.21,236.668 2874.39,234.45 2879.14,230.012C2883.9,225.575 2887.68,219.602 2890.49,212.092C2893.29,204.583 2894.7,196.391 2894.7,187.516C2894.7,177.618 2893.05,168.658 2889.76,160.636C2886.46,152.615 2881.9,146.642 2876.07,142.716C2871.85,139.986 2865.91,138.62 2858.24,138.62L2821.3,138.62L2821.3,236.668L2863.59,236.668Z"/>
                            </g>
                            <g transform="matrix(0.385024,0,0,0.369322,1414.16,148.679)">
                                <path d="M2881.47,128.851C2888.7,134.183 2894.39,142.103 2898.55,152.576C2902.72,163.078 2904.81,174.723 2904.81,187.516C2904.81,202.411 2901.94,215.734 2896.2,227.478C2891.77,236.549 2886.37,243.241 2880.01,247.549L2901.85,295.693L2902.78,298.502L2903.21,301.567L2903.12,304.708L2902.5,307.745L2901.39,310.382L2899.92,312.384L2898.17,313.655L2896.25,314.101L2895.85,314.101L2894.43,313.827L2893.12,313.034L2891.94,311.764L2890.97,310.06L2865.13,252.764L2862.09,252.914L2861.97,252.917L2825.42,252.917L2825.42,302.389L2825.28,304.685L2824.87,306.871L2824.22,308.887L2823.33,310.67L2822.25,312.133L2821.03,313.209L2819.7,313.874L2818.31,314.101L2818.3,314.101L2816.91,313.874L2815.58,313.209L2814.36,312.133L2813.28,310.67L2812.39,308.886L2811.73,306.87L2811.33,304.683L2811.19,302.387L2811.19,140.521C2811.19,135.707 2812.35,131.091 2814.42,127.688C2816.49,124.284 2819.29,122.372 2822.21,122.372L2858.24,122.372C2863.26,122.372 2867.56,122.882 2871.16,123.873C2874.92,124.911 2878.35,126.575 2881.46,128.84L2881.47,128.851ZM2863.59,229.892C2868.47,229.892 2872.98,227.975 2877.12,224.117C2881.25,220.258 2884.54,215.069 2886.98,208.538C2889.38,202.115 2890.58,195.107 2890.58,187.516C2890.58,179.017 2889.18,171.321 2886.35,164.433C2883.51,157.518 2879.56,152.397 2874.51,148.992C2870.66,146.515 2865.23,145.397 2858.24,145.397L2825.42,145.397L2825.42,229.892L2863.59,229.892Z"/>
                            </g>
                            <g transform="matrix(0.385024,0,0,0.385024,1413.83,147.804)">
                                <path d="M2941.07,303.824L3031.25,303.824C3034.21,303.824 3036.53,302.574 3038.21,300.074C3039.9,297.574 3040.75,294.658 3040.75,291.324C3040.75,287.991 3039.9,285.074 3038.21,282.574C3036.53,280.074 3034.21,278.824 3031.25,278.824L2941.07,278.824C2938.11,278.824 2935.79,280.074 2934.1,282.574C2932.41,285.074 2931.57,287.991 2931.57,291.324C2931.57,294.658 2932.41,297.574 2934.1,300.074C2935.79,302.574 2938.11,303.824 2941.07,303.824ZM2941.07,271.824L2970.49,271.824C2973.45,271.824 2975.77,270.574 2977.46,268.074C2979.14,265.574 2979.99,262.658 2979.99,259.324C2979.99,255.991 2979.14,253.074 2977.46,250.574C2975.77,248.074 2973.45,246.824 2970.49,246.824L2941.07,246.824C2938.11,246.824 2935.79,248.074 2934.1,250.574C2932.41,253.074 2931.57,255.991 2931.57,259.324C2931.57,262.658 2932.41,265.574 2934.1,268.074C2935.79,270.574 2938.11,271.824 2941.07,271.824ZM3022.08,271.824L3051.51,271.824C3054.46,271.824 3056.78,270.574 3058.47,268.074C3060.16,265.574 3061,262.658 3061,259.324C3061,255.991 3060.16,253.074 3058.47,250.574C3056.78,248.074 3054.46,246.824 3051.51,246.824L3022.08,246.824C3019.12,246.824 3016.8,248.074 3015.11,250.574C3013.43,253.074 3012.58,255.991 3012.58,259.324C3012.58,262.658 3013.43,265.574 3015.11,268.074C3016.8,270.574 3019.12,271.824 3022.08,271.824ZM2941.07,239.824L2970.49,239.824C2973.45,239.824 2975.77,238.574 2977.46,236.074C2979.14,233.574 2979.99,230.658 2979.99,227.324C2979.99,223.991 2979.14,221.074 2977.46,218.574C2975.77,216.074 2973.45,214.824 2970.49,214.824L2941.07,214.824C2938.11,214.824 2935.79,216.074 2934.1,218.574C2932.41,221.074 2931.57,223.991 2931.57,227.324C2931.57,230.658 2932.41,233.574 2934.1,236.074C2935.79,238.574 2938.11,239.824 2941.07,239.824ZM3022.08,239.824L3051.51,239.824C3054.46,239.824 3056.78,238.574 3058.47,236.074C3060.16,233.574 3061,230.658 3061,227.324C3061,223.991 3060.16,221.074 3058.47,218.574C3056.78,216.074 3054.46,214.824 3051.51,214.824L3022.08,214.824C3019.12,214.824 3016.8,216.074 3015.11,218.574C3013.43,221.074 3012.58,223.991 3012.58,227.324C3012.58,230.658 3013.43,233.574 3015.11,236.074C3016.8,238.574 3019.12,239.824 3022.08,239.824ZM2941.07,207.824L3031.25,207.824C3034.21,207.824 3036.53,206.574 3038.21,204.074C3039.9,201.574 3040.75,198.658 3040.75,195.324C3040.75,191.991 3039.9,189.074 3038.21,186.574C3036.53,184.074 3034.21,182.824 3031.25,182.824L2941.07,182.824C2938.11,182.824 2935.79,184.074 2934.1,186.574C2932.41,189.074 2931.57,191.991 2931.57,195.324C2931.57,198.658 2932.41,201.574 2934.1,204.074C2935.79,206.574 2938.11,207.824 2941.07,207.824ZM2941.07,175.824L2970.49,175.824C2973.45,175.824 2975.77,174.574 2977.46,172.074C2979.14,169.574 2979.99,166.658 2979.99,163.324C2979.99,159.991 2979.14,157.074 2977.46,154.574C2975.77,152.074 2973.45,150.824 2970.49,150.824L2941.07,150.824C2938.11,150.824 2935.79,152.074 2934.1,154.574C2932.41,157.074 2931.57,159.991 2931.57,163.324C2931.57,166.658 2932.41,169.574 2934.1,172.074C2935.79,174.574 2938.11,175.824 2941.07,175.824ZM3022.08,175.824L3051.51,175.824C3054.46,175.824 3056.78,174.574 3058.47,172.074C3060.16,169.574 3061,166.658 3061,163.324C3061,159.991 3060.16,157.074 3058.47,154.574C3056.78,152.074 3054.46,150.824 3051.51,150.824L3022.08,150.824C3019.12,150.824 3016.8,152.074 3015.11,154.574C3013.43,157.074 3012.58,159.991 3012.58,163.324C3012.58,166.658 3013.43,169.574 3015.11,172.074C3016.8,174.574 3019.12,175.824 3022.08,175.824ZM2941.07,143.824L2970.49,143.824C2973.45,143.824 2975.77,142.574 2977.46,140.074C2979.14,137.574 2979.99,134.658 2979.99,131.324C2979.99,127.991 2979.14,125.074 2977.46,122.574C2975.77,120.074 2973.45,118.824 2970.49,118.824L2941.07,118.824C2938.11,118.824 2935.79,120.074 2934.1,122.574C2932.41,125.074 2931.57,127.991 2931.57,131.324C2931.57,134.658 2932.41,137.574 2934.1,140.074C2935.79,142.574 2938.11,143.824 2941.07,143.824ZM3022.08,143.824L3051.51,143.824C3054.46,143.824 3056.78,142.574 3058.47,140.074C3060.16,137.574 3061,134.658 3061,131.324C3061,127.991 3060.16,125.074 3058.47,122.574C3056.78,120.074 3054.46,118.824 3051.51,118.824L3022.08,118.824C3019.12,118.824 3016.8,120.074 3015.11,122.574C3013.43,125.074 3012.58,127.991 3012.58,131.324C3012.58,134.658 3013.43,137.574 3015.11,140.074C3016.8,142.574 3019.12,143.824 3022.08,143.824ZM2941.07,111.824L3031.25,111.824C3034.21,111.824 3036.53,110.574 3038.21,108.074C3039.9,105.574 3040.75,102.658 3040.75,99.324C3040.75,95.991 3039.9,93.074 3038.21,90.574C3036.53,88.074 3034.21,86.824 3031.25,86.824L2941.07,86.824C2938.11,86.824 2935.79,88.074 2934.1,90.574C2932.41,93.074 2931.57,95.991 2931.57,99.324C2931.57,102.658 2932.41,105.574 2934.1,108.074C2935.79,110.574 2938.11,111.824 2941.07,111.824Z"/>
                            </g>
                            <g transform="matrix(0.385024,0,0,0.362559,1414.16,149.422)">
                                <path d="M3091.72,134.178C3091.72,131.4 3093.06,129.148 3094.71,129.148C3096.37,129.148 3097.71,131.4 3097.71,134.178C3097.71,155.734 3097.71,239.228 3097.71,239.228C3097.71,250.492 3099.49,260.903 3103.06,270.46C3106.62,280.018 3111.43,287.612 3117.48,293.244C3123.53,298.876 3130.12,301.692 3137.24,301.692C3144.37,301.692 3150.96,298.876 3157.01,293.244C3163.06,287.612 3167.87,280.018 3171.43,270.46C3174.99,260.903 3176.78,250.492 3176.78,239.228L3176.78,134.178C3176.78,131.4 3178.12,129.148 3179.77,129.148C3179.78,129.148 3179.78,129.148 3179.78,129.148C3180.57,129.148 3181.33,129.678 3181.89,130.621C3182.46,131.564 3182.77,132.842 3182.77,134.176C3182.77,155.729 3182.77,239.228 3182.77,239.228C3182.77,252.199 3180.72,264.188 3176.62,275.196C3172.51,286.204 3166.97,294.951 3160.01,301.436C3153.04,307.922 3145.45,311.164 3137.24,311.164C3129.03,311.164 3121.45,307.922 3114.48,301.436C3107.51,294.951 3101.98,286.204 3097.87,275.196C3093.77,264.188 3091.72,252.199 3091.72,239.228C3091.72,239.228 3091.72,155.734 3091.72,134.178Z"/>
                            </g>
                            <g transform="matrix(0.385024,0,0,0.370372,1414.16,148.413)">
                                <path d="M3290.87,129.148C3291.64,129.148 3292.37,129.647 3292.91,130.535C3293.45,131.423 3293.76,132.627 3293.76,133.883C3293.76,133.884 3293.76,133.885 3293.76,133.886C3293.76,135.142 3293.45,136.346 3292.91,137.234C3292.37,138.122 3291.64,138.62 3290.87,138.62C3282.72,138.62 3260.06,138.62 3260.06,138.62L3260.06,297.852L3290.87,297.852C3291.64,297.852 3292.37,298.351 3292.91,299.239C3293.45,300.127 3293.76,301.331 3293.76,302.587C3293.76,302.588 3293.76,302.589 3293.76,302.59C3293.76,303.846 3293.45,305.05 3292.91,305.938C3292.37,306.826 3291.64,307.324 3290.87,307.324C3279.17,307.324 3235.27,307.324 3223.57,307.324C3222.8,307.324 3222.07,306.826 3221.53,305.938C3220.99,305.05 3220.68,303.846 3220.68,302.59C3220.68,302.589 3220.68,302.588 3220.68,302.587C3220.68,299.972 3221.97,297.852 3223.57,297.852C3231.7,297.852 3254.22,297.852 3254.22,297.852L3254.22,138.62L3223.57,138.62C3221.97,138.62 3220.68,136.501 3220.68,133.886C3220.68,133.885 3220.68,133.884 3220.68,133.883C3220.68,132.627 3220.99,131.423 3221.53,130.535C3222.07,129.647 3222.8,129.148 3223.57,129.148C3235.27,129.148 3279.17,129.148 3290.87,129.148Z"/>
                            </g>
                            <g transform="matrix(0.385024,0,0,0.370372,1414.16,148.413)">
                                <path d="M3349.86,307.324C3347.83,307.324 3345.88,305.998 3344.45,303.638C3343.01,301.277 3342.2,298.076 3342.2,294.737L3342.2,134.072C3342.2,131.353 3343.54,129.148 3345.2,129.148C3345.99,129.148 3346.76,129.667 3347.32,130.59C3347.88,131.514 3348.2,132.766 3348.2,134.072C3348.2,161.86 3348.2,297.852 3348.2,297.852L3423.89,297.852C3424.66,297.852 3425.39,298.351 3425.93,299.239C3426.47,300.127 3426.78,301.331 3426.78,302.587C3426.78,302.588 3426.78,302.589 3426.78,302.59C3426.78,303.846 3426.47,305.05 3425.93,305.938C3425.39,306.826 3424.66,307.324 3423.89,307.324C3412.17,307.324 3367.86,307.324 3349.86,307.324Z"/>
                            </g>
                            <g transform="matrix(0.385024,0,0,0.370372,1414.16,148.413)">
                                <path d="M3495.8,129.148C3504.01,129.148 3511.59,132.391 3518.56,138.876C3525.53,145.362 3531.06,154.108 3535.17,165.116C3539.27,176.124 3541.33,188.114 3541.33,201.084L3541.33,235.388C3541.33,248.359 3539.27,260.348 3535.17,271.356C3531.06,282.364 3525.53,291.111 3518.56,297.596C3511.59,304.082 3504.01,307.324 3495.8,307.324L3461.56,307.324C3457.47,307.324 3454.16,301.882 3454.16,295.168C3454.16,262.634 3454.16,173.839 3454.16,141.304C3454.16,134.591 3457.47,129.148 3461.56,129.148C3473.53,129.148 3495.8,129.148 3495.8,129.148ZM3535.33,201.084C3535.33,189.82 3533.55,179.41 3529.98,169.852C3526.42,160.295 3521.59,152.7 3515.48,147.068C3509.38,141.436 3502.76,138.62 3495.64,138.62L3460.15,138.62L3460.15,297.852L3495.64,297.852C3502.76,297.852 3509.38,295.036 3515.48,289.404C3521.59,283.772 3526.42,276.178 3529.98,266.62C3533.55,257.063 3535.33,246.652 3535.33,235.388L3535.33,201.084Z"/>
                            </g>
                            <g transform="matrix(0.385024,0,0,0.370372,1414.16,148.413)">
                                <path d="M3577.94,138.995C3577.94,133.557 3580.63,129.148 3583.94,129.148C3599.88,129.148 3642.91,129.148 3654.45,129.148C3656.04,129.148 3657.33,131.268 3657.33,133.883C3657.33,133.884 3657.33,133.885 3657.33,133.886C3657.33,135.142 3657.03,136.346 3656.49,137.234C3655.95,138.122 3655.21,138.62 3654.45,138.62C3640.87,138.62 3583.94,138.62 3583.94,138.62L3583.94,210.812L3644.89,210.812C3645.66,210.812 3646.39,211.311 3646.93,212.199C3647.47,213.087 3647.77,214.291 3647.77,215.547C3647.77,215.548 3647.77,215.549 3647.77,215.55C3647.77,216.806 3647.47,218.01 3646.93,218.898C3646.39,219.786 3645.66,220.284 3644.89,220.284C3632.45,220.284 3583.94,220.284 3583.94,220.284L3583.94,297.852L3654.45,297.852C3655.21,297.852 3655.95,298.351 3656.49,299.239C3657.03,300.127 3657.33,301.331 3657.33,302.587C3657.33,302.588 3657.33,302.589 3657.33,302.59C3657.33,305.205 3656.04,307.324 3654.45,307.324C3642.91,307.324 3599.88,307.324 3583.94,307.324C3580.63,307.324 3577.94,302.916 3577.94,297.478C3577.94,266.327 3577.94,170.146 3577.94,138.995Z"/>
                            </g>
                            <g transform="matrix(0.385024,0,0,0.370372,1414.16,148.413)">
                                <path d="M3761.19,135.036C3767.67,139.815 3772.77,146.898 3776.5,156.284C3780.23,165.671 3782.09,176.082 3782.09,187.516C3782.09,200.828 3779.52,212.732 3774.39,223.228C3769.26,233.724 3762.7,240.679 3754.71,244.092C3754.71,244.092 3771.6,281.335 3779.45,298.656C3780.2,300.302 3780.32,302.499 3779.76,304.333C3779.2,306.167 3778.05,307.324 3776.8,307.324C3776.7,307.324 3776.62,307.324 3776.54,307.324C3776.36,307.324 3776.19,307.184 3776.09,306.946C3773.76,301.797 3748.55,245.884 3748.55,245.884L3743.37,246.14L3702.7,246.14L3702.7,302.401C3702.7,303.707 3702.38,304.959 3701.82,305.882C3701.26,306.806 3700.5,307.324 3699.7,307.324C3698.05,307.324 3696.7,305.12 3696.7,302.401L3696.7,135.161C3696.7,131.84 3698.34,129.148 3700.36,129.148C3710.75,129.148 3739.64,129.148 3739.64,129.148C3744.39,129.148 3748.47,129.618 3751.87,130.556C3755.27,131.495 3758.38,132.988 3761.19,135.036ZM3744.99,236.668C3750.6,236.668 3755.79,234.45 3760.54,230.012C3765.29,225.575 3769.07,219.602 3771.88,212.092C3774.69,204.583 3776.09,196.391 3776.09,187.516C3776.09,177.618 3774.45,168.658 3771.15,160.636C3767.86,152.615 3763.29,146.642 3757.46,142.716C3753.25,139.986 3747.31,138.62 3739.64,138.62L3702.7,138.62L3702.7,236.668L3744.99,236.668Z"/>
                            </g>
                            <g transform="matrix(0.385024,0,0,0.370372,1414.16,148.413)">
                                <path d="M3859.05,222.076C3849.87,219.175 3842.39,215.975 3836.61,212.476C3830.83,208.978 3826.29,204.199 3823,198.14C3819.7,192.082 3818.06,184.274 3818.06,174.716C3818.06,164.818 3819.7,156.114 3823,148.604C3826.29,141.095 3830.94,135.292 3836.93,131.196C3842.93,127.1 3849.87,125.052 3857.75,125.052C3865.31,125.052 3872.25,127.57 3878.57,132.604C3884.89,137.639 3889.89,144.679 3893.56,153.724C3896.49,160.949 3898.26,168.99 3898.85,177.848C3898.95,179.584 3898.61,181.314 3897.89,182.609C3897.18,183.904 3896.17,184.643 3895.11,184.643C3895.1,184.7 3895.1,184.7 3895.09,184.7C3893.98,184.7 3893.07,183.269 3893.01,181.445C3892.71,172.707 3891.16,164.918 3888.38,158.076C3885.24,150.396 3880.98,144.466 3875.58,140.284C3870.17,136.103 3864.18,134.012 3857.59,134.012C3851.76,134.012 3846.3,135.463 3841.23,138.364C3836.15,141.266 3832.02,145.703 3828.83,151.676C3825.65,157.65 3824.05,165.159 3824.05,174.204C3824.05,182.396 3825.57,188.924 3828.59,193.788C3831.61,198.652 3835.56,202.364 3840.42,204.924C3845.28,207.484 3852.08,210.215 3860.83,213.116C3869.69,216.018 3876.57,218.791 3881.49,221.436C3886.4,224.082 3890.56,228.476 3893.97,234.62C3897.37,240.764 3899.07,249.383 3899.07,260.476C3899.07,271.57 3897.2,280.914 3893.48,288.508C3889.75,296.103 3884.81,301.778 3878.65,305.532C3872.5,309.287 3865.8,311.164 3858.56,311.164C3849.6,311.164 3841.71,308.519 3834.91,303.228C3828.1,297.938 3822.89,290.471 3819.27,280.828C3816.32,272.964 3814.57,264.164 3814.03,254.427C3813.94,252.703 3814.3,250.996 3815.01,249.722C3815.72,248.447 3816.72,247.722 3817.78,247.722C3817.79,247.676 3817.8,247.676 3817.81,247.676C3818.93,247.677 3819.85,249.123 3819.89,250.958C3820.17,260.524 3821.69,268.988 3824.46,276.348C3827.54,284.54 3831.99,290.898 3837.82,295.42C3843.66,299.943 3850.57,302.204 3858.56,302.204C3868.5,302.204 3876.74,298.45 3883.27,290.94C3889.81,283.431 3893.07,273.191 3893.07,260.22C3893.07,251.346 3891.67,244.519 3888.86,239.74C3886.05,234.962 3882.51,231.506 3878.25,229.372C3873.98,227.239 3867.58,224.807 3859.05,222.076Z"/>
                            </g>
                            <g transform="matrix(0.385024,0,0,0.370372,1414.16,148.413)">
                                <path d="M3290.87,122.391L3292.24,122.614L3293.55,123.266L3294.76,124.322L3295.82,125.757L3296.7,127.507L3297.34,129.485L3297.73,131.63L3297.87,133.883L3297.87,133.886L3297.73,136.139L3297.34,138.284L3296.7,140.262L3295.82,142.012L3294.76,143.447L3293.55,144.503L3292.24,145.155L3290.87,145.378L3264.17,145.378L3264.17,291.095L3290.87,291.095L3292.24,291.318L3293.55,291.97L3294.76,293.026L3295.82,294.461L3296.7,296.211L3297.34,298.189L3297.73,300.334L3297.87,302.587L3297.87,302.59L3297.73,304.843L3297.34,306.988L3296.7,308.966L3295.82,310.716L3294.76,312.151L3293.55,313.207L3292.24,313.859L3290.87,314.082L3223.57,314.082L3222.2,313.859L3220.89,313.207L3219.68,312.151L3218.62,310.716L3217.75,308.966L3217.1,306.988L3216.71,304.843L3216.57,302.59L3216.57,302.587L3216.71,300.278L3217.12,298.112L3217.77,296.157L3218.62,294.461L3219.65,293.062L3220.84,292.001L3222.16,291.329L3223.57,291.095L3250.11,291.095L3250.11,145.378L3223.57,145.378L3222.16,145.144L3220.84,144.472L3219.65,143.411L3218.62,142.012L3217.77,140.316L3217.12,138.361L3216.71,136.195L3216.57,133.886L3216.57,133.883L3216.71,131.63L3217.1,129.485L3217.75,127.507L3218.62,125.757L3219.68,124.322L3220.89,123.266L3222.2,122.614L3223.57,122.391L3290.87,122.391Z"/>
                            </g>
                            <g transform="matrix(0.385024,0,0,0.370372,1414.16,148.413)">
                                <path d="M3345.2,122.391L3346.59,122.618L3347.92,123.28L3349.14,124.354L3350.23,125.812L3351.12,127.592L3351.77,129.602L3352.17,131.782L3352.31,134.072L3352.31,291.095L3423.89,291.095L3425.26,291.318L3426.57,291.97L3427.78,293.026L3428.84,294.461L3429.71,296.211L3430.36,298.189L3430.75,300.334L3430.89,302.587L3430.89,302.59L3430.75,304.843L3430.36,306.988L3429.71,308.966L3428.84,310.716L3427.78,312.151L3426.57,313.207L3425.26,313.859L3423.89,314.082L3349.86,314.082C3346.74,314.082 3343.74,312.043 3341.54,308.416C3339.33,304.788 3338.09,299.868 3338.09,294.737L3338.09,134.072L3338.23,131.725L3338.65,129.523L3339.3,127.536L3340.17,125.812L3341.22,124.39L3342.43,123.312L3343.77,122.628L3345.2,122.391Z"/>
                            </g>
                            <g transform="matrix(0.385024,0,0,0.370372,1414.16,148.413)">
                                <path d="M3495.8,122.391C3504.74,122.391 3513,125.934 3520.59,132.998C3528.18,140.062 3534.2,149.596 3538.68,161.587C3543.18,173.676 3545.44,186.841 3545.44,201.084L3545.44,235.388C3545.44,249.632 3543.18,262.797 3538.68,274.886C3534.2,286.877 3528.18,296.411 3520.59,303.475C3513,310.539 3504.74,314.082 3495.8,314.082L3461.56,314.082C3455.2,314.082 3450.04,305.614 3450.04,295.168L3450.04,141.304C3450.04,130.859 3455.2,122.391 3461.56,122.391L3495.8,122.391ZM3531.22,201.084C3531.22,191.094 3529.64,181.859 3526.48,173.382C3523.28,164.812 3518.94,158.01 3513.47,152.959C3507.99,147.9 3502.04,145.378 3495.64,145.378L3464.27,145.378L3464.27,291.095L3495.64,291.095C3502.04,291.095 3507.99,288.573 3513.47,283.513C3518.94,278.463 3523.28,271.661 3526.48,263.091C3529.64,254.614 3531.22,245.379 3531.22,235.388L3531.22,201.084Z"/>
                            </g>
                            <g transform="matrix(0.385024,0,0,0.370372,1414.16,148.413)">
                                <path d="M3573.83,138.995C3573.83,129.825 3578.35,122.391 3583.94,122.391L3654.45,122.391L3655.86,122.625L3657.18,123.297L3658.37,124.358L3659.4,125.757L3660.25,127.453L3660.89,129.408L3661.3,131.574L3661.45,133.883L3661.45,133.886L3661.31,136.139L3660.91,138.284L3660.27,140.262L3659.4,142.012L3658.33,143.447L3657.13,144.503L3655.82,145.155L3654.45,145.378L3588.05,145.378L3588.05,204.055L3644.89,204.055L3646.26,204.278L3647.57,204.93L3648.77,205.986L3649.84,207.421L3650.71,209.171L3651.35,211.149L3651.75,213.294L3651.89,215.547L3651.89,215.55L3651.75,217.803L3651.35,219.948L3650.71,221.926L3649.84,223.676L3648.77,225.111L3647.57,226.167L3646.26,226.819L3644.89,227.042L3588.05,227.042L3588.05,291.095L3654.45,291.095L3655.82,291.318L3657.13,291.97L3658.33,293.026L3659.4,294.461L3660.27,296.211L3660.91,298.189L3661.31,300.334L3661.45,302.587L3661.45,302.59L3661.3,304.899L3660.89,307.065L3660.25,309.02L3659.4,310.716L3658.37,312.115L3657.18,313.176L3655.86,313.848L3654.45,314.082L3583.94,314.082C3578.35,314.082 3573.83,306.648 3573.83,297.478L3573.83,138.995Z"/>
                            </g>
                            <g transform="matrix(0.385024,0,0,0.370372,1414.16,148.413)">
                                <path d="M3700.51,313.949C3702.4,313.329 3699.7,314.082 3699.7,314.082L3698.27,313.844L3696.93,313.161L3695.72,312.083L3694.67,310.66L3693.81,308.936L3693.15,306.95L3692.73,304.748L3692.59,302.401L3692.59,135.161L3692.75,132.595L3693.2,130.188L3693.92,128.017L3694.87,126.132L3696.01,124.576L3697.34,123.398L3698.8,122.651L3700.36,122.391L3739.64,122.391C3744.66,122.391 3748.96,122.902 3752.55,123.893C3756.32,124.931 3759.75,126.595 3762.86,128.861L3762.87,128.872C3770.1,134.203 3775.79,142.122 3779.95,152.594C3784.11,163.09 3786.2,174.729 3786.2,187.516C3786.2,202.404 3783.34,215.72 3777.6,227.459C3773.16,236.536 3767.76,243.23 3761.4,247.538L3782.75,294.619L3783.74,297.591L3784.19,300.833L3784.09,304.155L3783.43,307.364L3782.26,310.151L3780.7,312.267L3778.85,313.611L3776.8,314.082L3776.54,314.082L3775.45,313.87L3774.44,313.259L3773.53,312.281L3772.78,310.968L3746.53,252.745L3743.49,252.894L3743.37,252.898L3706.81,252.898L3706.81,302.401L3706.67,304.691L3706.27,306.871L3705.62,308.881L3704.73,310.66L3703.65,312.119L3702.42,313.192L3701.1,313.855L3700.51,313.949ZM3700.51,313.949C3700.25,314.036 3699.98,314.082 3699.7,314.082L3700.51,313.949ZM3744.99,229.911C3749.87,229.911 3754.38,227.995 3758.51,224.138C3762.64,220.278 3765.93,215.088 3768.38,208.556C3770.78,202.127 3771.98,195.114 3771.98,187.516C3771.98,179.011 3770.57,171.308 3767.74,164.415C3764.9,157.499 3760.95,152.377 3755.91,148.972C3752.06,146.495 3746.63,145.378 3739.64,145.378L3706.81,145.378L3706.81,229.911L3744.99,229.911Z"/>
                            </g>
                            <g transform="matrix(0.385024,0,0,0.370372,1414.16,148.413)">
                                <path d="M3817.4,241.029L3817.81,240.919L3819.02,241.115L3820.16,241.678L3821.19,242.57L3822.1,243.749L3822.85,245.183L3823.44,246.842L3823.83,248.688L3824,250.661C3824.24,258.997 3825.55,266.384 3827.96,272.799C3830.63,279.909 3834.52,285.385 3839.58,289.31C3844.92,293.448 3851.25,295.447 3858.56,295.447C3867.54,295.447 3875.01,292.189 3880.91,285.404C3886.27,279.246 3888.96,270.857 3888.96,260.22C3888.96,253.419 3888.05,248.096 3885.9,244.433C3883.56,240.454 3880.6,237.613 3877.05,235.837C3872.88,233.749 3866.61,231.381 3858.26,228.71C3848.82,225.725 3841.13,222.415 3835.19,218.817C3828.7,214.887 3823.63,209.446 3819.93,202.642C3816,195.406 3813.94,186.13 3813.94,174.716C3813.94,163.315 3815.87,153.303 3819.66,144.654C3823.38,136.183 3828.59,129.578 3835.35,124.958C3841.8,120.55 3849.27,118.295 3857.75,118.295C3865.97,118.295 3873.5,121.055 3880.37,126.525C3887.38,132.11 3892.91,139.941 3896.98,149.975C3900.28,158.104 3902.27,167.147 3902.93,177.112L3902.94,177.165L3902.93,179.877L3902.59,182.499L3901.92,184.948L3900.95,187.139L3899.72,188.949L3898.3,190.287L3896.75,191.115L3895.61,191.313L3895.09,191.458L3893.89,191.264L3892.76,190.706L3891.72,189.823L3890.82,188.655L3890.07,187.233L3889.48,185.587L3889.08,183.754C3889.08,183.754 3888.91,181.848 3888.9,181.82C3888.65,174.351 3887.34,167.685 3884.96,161.837C3882.24,155.163 3878.51,150.031 3873.82,146.397C3868.95,142.624 3863.54,140.77 3857.59,140.77C3852.24,140.77 3847.24,142.085 3842.58,144.746C3838.22,147.236 3834.66,151.004 3831.93,156.129C3829.38,160.912 3828.17,166.962 3828.17,174.204C3828.17,180.35 3829.2,185.311 3831.47,188.96C3834.07,193.149 3837.49,196.286 3841.67,198.49C3846.43,200.994 3853.08,203.654 3861.64,206.492C3870.7,209.46 3877.74,212.309 3882.77,215.015C3888.38,218.035 3893.12,223.06 3897.01,230.074C3901.02,237.318 3903.18,247.396 3903.18,260.476C3903.18,273.26 3900.98,283.997 3896.68,292.749C3892.51,301.26 3886.99,307.659 3880.09,311.867C3873.49,315.89 3866.32,317.922 3858.56,317.922C3848.93,317.922 3840.46,315.022 3833.15,309.336C3825.58,303.449 3819.8,295.103 3815.77,284.374C3812.49,275.636 3810.54,265.864 3809.93,255.045L3809.93,255.002L3809.96,252.316L3810.32,249.724L3811,247.309L3811.98,245.152L3813.2,243.372L3814.61,242.058L3816.15,241.244L3817.4,241.029ZM3891.52,181.325C3891.36,181.737 3891.13,182.447 3891.03,183.802C3891.09,182.906 3891.27,182.07 3891.52,181.325ZM3820.44,252.868C3820.84,252.359 3821.31,251.564 3821.65,250.016C3821.4,251.149 3820.98,252.122 3820.44,252.868Z"/>
                            </g>
                            <g transform="matrix(0.385024,0,0,0.362559,1414.16,149.422)">
                                <path d="M3094.71,122.246C3095,122.246 3095.28,122.294 3095.54,122.387L3096.14,122.488L3097.48,123.186L3098.69,124.288L3099.74,125.741L3100.61,127.502L3101.26,129.531L3101.68,131.78L3101.82,134.178L3101.82,239.228C3101.82,249.172 3103.4,258.362 3106.54,266.799C3109.74,275.364 3114.05,282.161 3119.47,287.209C3124.91,292.271 3130.84,294.79 3137.24,294.79C3143.65,294.79 3149.58,292.271 3155.01,287.209C3160.43,282.161 3164.75,275.364 3167.94,266.799C3171.09,258.362 3172.66,249.172 3172.66,239.228L3172.66,134.178L3172.81,131.78L3173.22,129.531L3173.88,127.502L3174.75,125.741L3175.8,124.288L3177.01,123.186L3178.35,122.488L3179.77,122.246L3179.78,122.246L3181.17,122.477L3182.5,123.154L3183.72,124.25L3184.8,125.74L3185.69,127.557L3186.34,129.61L3186.75,131.837L3186.89,134.176L3186.89,239.228C3186.89,253.519 3184.62,266.729 3180.1,278.858C3175.63,290.858 3169.6,300.403 3162,307.473C3154.43,314.527 3146.17,318.067 3137.24,318.067C3128.31,318.067 3120.06,314.527 3112.48,307.473C3104.89,300.403 3098.86,290.858 3094.39,278.858C3089.86,266.729 3087.6,253.519 3087.6,239.228L3087.6,134.178L3087.75,131.78L3088.16,129.531L3088.82,127.502L3089.68,125.741L3090.73,124.288L3091.94,123.186L3093.28,122.488L3094.71,122.246Z"/>
                            </g>
                        </g>
                    </g>
                </g>
            </g>
        </g>
        <g id="logo-concept">
        </g>
        <g id="neo-sparkle">
        </g>
        <g id="fonts">
        </g>
    </g>
</svg>
