<?xml version="1.0" encoding="UTF-8" standalone="no"?>
<!DOCTYPE svg PUBLIC "-//W3C//DTD SVG 1.1//EN" "http://www.w3.org/Graphics/SVG/1.1/DTD/svg11.dtd">
<svg width="100%" height="100%" viewBox="0 0 853 519" version="1.1" xmlns="http://www.w3.org/2000/svg" xmlns:xlink="http://www.w3.org/1999/xlink" xml:space="preserve" xmlns:serif="http://www.serif.com/" style="fill-rule:evenodd;clip-rule:evenodd;stroke-linejoin:round;stroke-miterlimit:2;">
    <g transform="matrix(1,0,0,1,-14422.9,-4196.33)">
        <g transform="matrix(0.999091,0,0,0.995837,14324.6,3955.26)">
            <g transform="matrix(1.00091,0,0,1.00418,-7773.8,-2728.17)">
                <g transform="matrix(7.302,0,0,7.302,-49268.1,-23195.7)">
                    <path d="M7853.48,3652.43C7844.2,3652.43 7837.05,3650.24 7832.03,3645.86C7827,3641.47 7824.52,3634.9 7824.59,3626.13L7840.23,3626.13C7840.17,3629.78 7841.26,3632.56 7843.5,3634.48C7845.74,3636.4 7848.87,3637.36 7852.91,3637.36C7856.23,3637.36 7858.86,3636.82 7860.78,3635.73C7862.7,3634.64 7863.66,3632.98 7863.66,3630.74C7863.66,3628.88 7862.68,3627.54 7860.73,3626.7C7858.78,3625.87 7856.84,3625.28 7854.92,3624.93C7853,3624.58 7851.82,3624.37 7851.37,3624.31C7846.44,3623.35 7842.19,3622.18 7838.6,3620.8C7835.02,3619.43 7832.01,3617.33 7829.58,3614.51C7827.15,3611.7 7825.93,3607.99 7825.93,3603.38C7825.93,3598.77 7827.15,3594.85 7829.58,3591.62C7832.01,3588.39 7835.26,3585.97 7839.32,3584.37C7843.39,3582.77 7847.82,3581.97 7852.62,3581.97C7858.44,3581.97 7863.48,3583.06 7867.74,3585.23C7871.99,3587.41 7875.34,3590.7 7877.77,3595.12C7878.99,3597.23 7879.72,3599.26 7879.98,3601.22C7880.23,3603.17 7880.36,3605.07 7880.36,3606.93L7864.71,3606.93C7864.71,3603.47 7863.79,3600.93 7861.93,3599.3C7860.07,3597.66 7857.19,3596.85 7853.29,3596.85C7850.15,3596.85 7847.72,3597.39 7845.99,3598.48C7844.27,3599.57 7843.4,3601.04 7843.4,3602.9C7843.4,3604.95 7844.55,3606.45 7846.86,3607.41C7849.16,3608.37 7852.07,3609.23 7855.59,3610C7861.35,3611.15 7865.85,3612.26 7869.08,3613.31C7872.31,3614.37 7875.11,3616.24 7877.48,3618.93C7879.85,3621.62 7881.03,3625.39 7881.03,3630.26C7881.03,3634.87 7879.75,3638.83 7877.19,3642.16C7874.63,3645.49 7871.26,3648.03 7867.07,3649.79C7862.87,3651.55 7858.35,3652.43 7853.48,3652.43Z" style="fill:white;fill-rule:nonzero;stroke:white;stroke-width:0.55px;"/>
                </g>
                <g transform="matrix(7.70067,0,0,7.70067,-54702.3,-24638.5)">
                    <path d="M8212.91,3583.89C8217.13,3583.89 8220.49,3584.53 8222.99,3585.81C8225.99,3587.35 8228.31,3589.46 8229.95,3592.14C8231.58,3594.83 8232.39,3597.84 8232.39,3601.17C8232.39,3604.31 8231.56,3607.2 8229.9,3609.86C8228.23,3612.51 8225.96,3614.61 8223.08,3616.14C8226.54,3617.36 8229.45,3619.47 8231.82,3622.48C8234.19,3625.49 8235.37,3628.88 8235.37,3632.66C8235.37,3635.99 8234.52,3639.04 8232.83,3641.83C8231.13,3644.61 8228.87,3646.8 8226.06,3648.4C8224.65,3649.17 8223.08,3649.74 8221.35,3650.13C8219.63,3650.51 8217.32,3650.7 8214.44,3650.7L8184.87,3650.7L8184.87,3583.89L8212.91,3583.89Z" style="fill:white;fill-rule:nonzero;stroke:white;stroke-width:0.52px;"/>
                </g>
            </g>
        </g>
    </g>
</svg>
